<?xml version="1.0" encoding="UTF-8" standalone="no"?>
<svg
   xmlns:dc="http://purl.org/dc/elements/1.1/"
   xmlns:cc="http://creativecommons.org/ns#"
   xmlns:rdf="http://www.w3.org/1999/02/22-rdf-syntax-ns#"
   xmlns:svg="http://www.w3.org/2000/svg"
   xmlns="http://www.w3.org/2000/svg"
   viewBox="0 0 94.341332 174.55333"
   height="174.55333"
   width="94.341331"
   xml:space="preserve"
   id="svg63950"
   version="1.1"><metadata
     id="metadata63956"><rdf:RDF><cc:Work
         rdf:about=""><dc:format>image/svg+xml</dc:format><dc:type
           rdf:resource="http://purl.org/dc/dcmitype/StillImage" /><dc:title></dc:title></cc:Work></rdf:RDF></metadata><defs
     id="defs63954" /><g
     transform="matrix(1.3333333,0,0,-1.3333333,-587.22399,425.44799)"
     id="g63958"><path
       d="m 507.641,308.476 v -3.544 h -3.534 v -3.533 h 3.534 v -3.543 h 3.533 v 3.543 3.533 3.544 h -3.533"
       style="fill:#100f0d;fill-opacity:1;fill-rule:nonzero;stroke:none;stroke-width:0.1"
       id="path67068" /><path
       d="m 504.107,312.009 v 3.544 h -3.552 v 3.533 h -3.534 -3.533 -3.533 v -3.533 H 486.4 v -3.544 -3.533 -3.544 -3.533 h 3.555 v -3.543 -3.534 -3.544 h 3.533 v -3.532 -3.545 h 3.533 v -3.533 -3.543 -3.533 -3.543 h -3.533 -3.533 v 3.543 H 486.4 v 3.533 h -3.533 -3.533 v 3.543 h -3.543 -3.533 -3.533 -3.545 v -3.543 h -3.543 v -3.533 h -3.533 v -3.543 h -3.534 v -3.533 h -3.533 v -3.544 h -3.553 v -3.533 h -3.533 v -3.544 h -3.533 v -3.534 h 3.533 3.533 v 3.534 h 3.553 3.533 v -3.534 h 3.534 3.533 v 3.534 h 3.543 v -3.534 h 3.545 v -3.543 h 3.533 v -3.533 -3.544 h -3.533 v -3.533 -3.544 -3.533 h -3.545 v -3.543 -3.533 h 3.545 v -3.544 -3.533 -3.543 -3.534 -3.543 -3.534 -3.543 -3.533 -3.544 -3.533 h 3.533 3.533 3.543 v 3.533 h -3.543 -3.533 v 3.544 3.533 3.543 3.534 3.543 3.534 3.543 h 3.533 3.543 v 3.533 h -3.543 v 3.544 h -3.533 v 3.533 3.543 3.533 h 3.533 v 3.544 h 3.543 v 3.533 h -3.543 v 3.544 h 3.543 v 3.533 h 3.533 3.533 v 3.543 3.534 h 3.555 3.533 v 3.544 h 3.533 3.534 3.552 v 3.533 3.544 h 3.534 v 3.533 3.543 3.533 h -3.534 v 3.543 3.533 3.545 h -3.552 v 3.532 3.544 h -3.534 v 3.534 3.543 3.533 3.544 h 3.534 v -3.544 h 3.552 3.534 v 3.544 3.533 h -3.534"
       style="fill:#f14875;fill-opacity:1;fill-rule:nonzero;stroke:none;stroke-width:0.1"
       id="path67070" /><path
       d="m 493.488,202.324 v 3.534 h -3.533 v -3.534 h 3.533"
       style="fill:#f14875;fill-opacity:1;fill-rule:nonzero;stroke:none;stroke-width:0.1"
       id="path67072" /><path
       d="m 489.955,205.858 v 3.543 H 486.4 v -3.543 h 3.555"
       style="fill:#f14875;fill-opacity:1;fill-rule:nonzero;stroke:none;stroke-width:0.1"
       id="path67074" /><path
       d="m 486.4,209.401 v 3.534 h -3.533 v -3.534 h 3.533"
       style="fill:#f14875;fill-opacity:1;fill-rule:nonzero;stroke:none;stroke-width:0.1"
       id="path67076" /><path
       d="m 482.867,212.935 v 3.543 h -3.533 v -3.543 h 3.533"
       style="fill:#f14875;fill-opacity:1;fill-rule:nonzero;stroke:none;stroke-width:0.1"
       id="path67078" /><path
       d="m 511.174,301.399 v -3.543 h -3.533 v 3.543 h 3.533"
       style="fill:#100f0d;fill-opacity:1;fill-rule:nonzero;stroke:none;stroke-width:0.1"
       id="path67080" /><path
       d="m 511.174,304.932 v -3.533 h -3.533 v 3.533 h 3.533"
       style="fill:#100f0d;fill-opacity:1;fill-rule:nonzero;stroke:none;stroke-width:0.1"
       id="path67082" /><path
       d="m 511.174,308.476 v -3.544 h -3.533 v 3.544 h 3.533"
       style="fill:#100f0d;fill-opacity:1;fill-rule:nonzero;stroke:none;stroke-width:0.1"
       id="path67084" /><path
       d="m 507.641,269.549 v -3.533 h -3.534 v 3.533 h 3.534"
       style="fill:#f57387;fill-opacity:1;fill-rule:nonzero;stroke:none;stroke-width:0.1"
       id="path67086" /><path
       d="m 507.641,273.092 v -3.543 h -3.534 v 3.543 h 3.534"
       style="fill:#f57387;fill-opacity:1;fill-rule:nonzero;stroke:none;stroke-width:0.1"
       id="path67088" /><path
       d="m 507.641,276.625 v -3.533 h -3.534 v 3.533 h 3.534"
       style="fill:#f57387;fill-opacity:1;fill-rule:nonzero;stroke:none;stroke-width:0.1"
       id="path67090" /><path
       d="m 507.641,304.932 v -3.533 h -3.534 v 3.533 h 3.534"
       style="fill:#100f0d;fill-opacity:1;fill-rule:nonzero;stroke:none;stroke-width:0.1"
       id="path67092" /><path
       d="m 507.641,308.476 v -3.544 h -3.534 v 3.544 h 3.534"
       style="fill:#f57387;fill-opacity:1;fill-rule:nonzero;stroke:none;stroke-width:0.1"
       id="path67094" /><path
       d="m 507.641,312.009 v -3.533 h -3.534 v 3.533 h 3.534"
       style="fill:#f57387;fill-opacity:1;fill-rule:nonzero;stroke:none;stroke-width:0.1"
       id="path67096" /><path
       d="m 504.107,262.472 v -3.533 h -3.552 v 3.533 h 3.552"
       style="fill:#ef3456;fill-opacity:1;fill-rule:nonzero;stroke:none;stroke-width:0.1"
       id="path67098" /><path
       d="m 504.107,266.016 v -3.544 h -3.552 v 3.544 h 3.552"
       style="fill:#ef3456;fill-opacity:1;fill-rule:nonzero;stroke:none;stroke-width:0.1"
       id="path67100" /><path
       d="m 504.107,269.549 v -3.533 h -3.552 v 3.533 h 3.552"
       style="fill:#ef3456;fill-opacity:1;fill-rule:nonzero;stroke:none;stroke-width:0.1"
       id="path67102" /><path
       d="m 504.107,273.092 v -3.543 h -3.552 v 3.543 h 3.552"
       style="fill:#ef3456;fill-opacity:1;fill-rule:nonzero;stroke:none;stroke-width:0.1"
       id="path67104" /><path
       d="m 504.107,276.625 v -3.533 h -3.552 v 3.533 h 3.552"
       style="fill:#f57387;fill-opacity:1;fill-rule:nonzero;stroke:none;stroke-width:0.1"
       id="path67106" /><path
       d="m 504.107,280.168 v -3.543 h -3.552 v 3.543 h 3.552"
       style="fill:#f57387;fill-opacity:1;fill-rule:nonzero;stroke:none;stroke-width:0.1"
       id="path67108" /><path
       d="m 504.107,283.701 v -3.533 h -3.552 v 3.533 h 3.552"
       style="fill:#f57387;fill-opacity:1;fill-rule:nonzero;stroke:none;stroke-width:0.1"
       id="path67110" /><path
       d="m 504.107,287.246 v -3.545 h -3.552 v 3.545 h 3.552"
       style="fill:#f57387;fill-opacity:1;fill-rule:nonzero;stroke:none;stroke-width:0.1"
       id="path67112" /><path
       d="m 504.107,308.476 v -3.544 h -3.552 v 3.544 h 3.552"
       style="fill:#e02524;fill-opacity:1;fill-rule:nonzero;stroke:none;stroke-width:0.1"
       id="path67114" /><path
       d="m 504.107,312.009 v -3.533 h -3.552 v 3.533 h 3.552"
       style="fill:#f57387;fill-opacity:1;fill-rule:nonzero;stroke:none;stroke-width:0.1"
       id="path67116" /><path
       d="m 504.107,315.553 v -3.544 h -3.552 v 3.544 h 3.552"
       style="fill:#f57387;fill-opacity:1;fill-rule:nonzero;stroke:none;stroke-width:0.1"
       id="path67118" /><path
       d="m 500.555,262.472 v -3.533 h -3.534 v 3.533 h 3.534"
       style="fill:#ef3456;fill-opacity:1;fill-rule:nonzero;stroke:none;stroke-width:0.1"
       id="path67120" /><path
       d="m 500.555,266.016 v -3.544 h -3.534 v 3.544 h 3.534"
       style="fill:#ef3456;fill-opacity:1;fill-rule:nonzero;stroke:none;stroke-width:0.1"
       id="path67122" /><path
       d="m 500.555,269.549 v -3.533 h -3.534 v 3.533 h 3.534"
       style="fill:#f57387;fill-opacity:1;fill-rule:nonzero;stroke:none;stroke-width:0.1"
       id="path67124" /><path
       d="m 500.555,273.092 v -3.543 h -3.534 v 3.543 h 3.534"
       style="fill:#f57387;fill-opacity:1;fill-rule:nonzero;stroke:none;stroke-width:0.1"
       id="path67126" /><path
       d="m 500.555,276.625 v -3.533 h -3.534 v 3.533 h 3.534"
       style="fill:#ef3456;fill-opacity:1;fill-rule:nonzero;stroke:none;stroke-width:0.1"
       id="path67128" /><path
       d="m 500.555,280.168 v -3.543 h -3.534 v 3.543 h 3.534"
       style="fill:#ef3456;fill-opacity:1;fill-rule:nonzero;stroke:none;stroke-width:0.1"
       id="path67130" /><path
       d="m 500.555,283.701 v -3.533 h -3.534 v 3.533 h 3.534"
       style="fill:#f57387;fill-opacity:1;fill-rule:nonzero;stroke:none;stroke-width:0.1"
       id="path67132" /><path
       d="m 500.555,287.246 v -3.545 h -3.534 v 3.545 h 3.534"
       style="fill:#f57387;fill-opacity:1;fill-rule:nonzero;stroke:none;stroke-width:0.1"
       id="path67134" /><path
       d="m 500.555,290.778 v -3.532 h -3.534 v 3.532 h 3.534"
       style="fill:#f57387;fill-opacity:1;fill-rule:nonzero;stroke:none;stroke-width:0.1"
       id="path67136" /><path
       d="m 500.555,294.322 v -3.544 h -3.534 v 3.544 h 3.534"
       style="fill:#f57387;fill-opacity:1;fill-rule:nonzero;stroke:none;stroke-width:0.1"
       id="path67138" /><path
       d="m 500.555,312.009 v -3.533 h -3.534 v 3.533 h 3.534"
       style="fill:#ef3456;fill-opacity:1;fill-rule:nonzero;stroke:none;stroke-width:0.1"
       id="path67140" /><path
       d="m 500.555,315.553 v -3.544 h -3.534 v 3.544 h 3.534"
       style="fill:#ef3456;fill-opacity:1;fill-rule:nonzero;stroke:none;stroke-width:0.1"
       id="path67142" /><path
       d="m 500.555,319.086 v -3.533 h -3.534 v 3.533 h 3.534"
       style="fill:#ef3456;fill-opacity:1;fill-rule:nonzero;stroke:none;stroke-width:0.1"
       id="path67144" /><path
       d="m 497.021,262.472 v -3.533 h -3.533 v 3.533 h 3.533"
       style="fill:#ef3456;fill-opacity:1;fill-rule:nonzero;stroke:none;stroke-width:0.1"
       id="path67146" /><path
       d="m 497.021,266.016 v -3.544 h -3.533 v 3.544 h 3.533"
       style="fill:#ef3456;fill-opacity:1;fill-rule:nonzero;stroke:none;stroke-width:0.1"
       id="path67148" /><path
       d="m 497.021,269.549 v -3.533 h -3.533 v 3.533 h 3.533"
       style="fill:#f57387;fill-opacity:1;fill-rule:nonzero;stroke:none;stroke-width:0.1"
       id="path67150" /><path
       d="m 497.021,287.246 v -3.545 h -3.533 v 3.545 h 3.533"
       style="fill:#ef3456;fill-opacity:1;fill-rule:nonzero;stroke:none;stroke-width:0.1"
       id="path67152" /><path
       d="m 497.021,290.778 v -3.532 h -3.533 v 3.532 h 3.533"
       style="fill:#ef3456;fill-opacity:1;fill-rule:nonzero;stroke:none;stroke-width:0.1"
       id="path67154" /><path
       d="m 497.021,294.322 v -3.544 h -3.533 v 3.544 h 3.533"
       style="fill:#ef3456;fill-opacity:1;fill-rule:nonzero;stroke:none;stroke-width:0.1"
       id="path67156" /><path
       d="m 497.021,297.856 v -3.534 h -3.533 v 3.534 h 3.533"
       style="fill:#ef3456;fill-opacity:1;fill-rule:nonzero;stroke:none;stroke-width:0.1"
       id="path67158" /><path
       d="m 497.021,301.399 v -3.543 h -3.533 v 3.543 h 3.533"
       style="fill:#ef3456;fill-opacity:1;fill-rule:nonzero;stroke:none;stroke-width:0.1"
       id="path67160" /><path
       d="m 497.021,304.932 v -3.533 h -3.533 v 3.533 h 3.533"
       style="fill:#ef3456;fill-opacity:1;fill-rule:nonzero;stroke:none;stroke-width:0.1"
       id="path67162" /><path
       d="m 497.021,308.476 v -3.544 h -3.533 v 3.544 h 3.533"
       style="fill:#ef3456;fill-opacity:1;fill-rule:nonzero;stroke:none;stroke-width:0.1"
       id="path67164" /><path
       d="m 497.021,312.009 v -3.533 h -3.533 v 3.533 h 3.533"
       style="fill:#ef3456;fill-opacity:1;fill-rule:nonzero;stroke:none;stroke-width:0.1"
       id="path67166" /><path
       d="m 497.021,315.553 v -3.544 h -3.533 v 3.544 h 3.533"
       style="fill:#cb3423;fill-opacity:1;fill-rule:nonzero;stroke:none;stroke-width:0.1"
       id="path67168" /><path
       d="m 497.021,319.086 v -3.533 h -3.533 v 3.533 h 3.533"
       style="fill:#ef3456;fill-opacity:1;fill-rule:nonzero;stroke:none;stroke-width:0.1"
       id="path67170" /><path
       d="m 493.488,205.858 v -3.534 h -3.533 v 3.534 h 3.533"
       style="fill:#ef3456;fill-opacity:1;fill-rule:nonzero;stroke:none;stroke-width:0.1"
       id="path67172" /><path
       d="m 493.488,258.939 v -3.544 h -3.533 v 3.544 h 3.533"
       style="fill:#ef3456;fill-opacity:1;fill-rule:nonzero;stroke:none;stroke-width:0.1"
       id="path67174" /><path
       d="m 493.488,262.472 v -3.533 h -3.533 v 3.533 h 3.533"
       style="fill:#ef3456;fill-opacity:1;fill-rule:nonzero;stroke:none;stroke-width:0.1"
       id="path67176" /><path
       d="m 493.488,266.016 v -3.544 h -3.533 v 3.544 h 3.533"
       style="fill:#f57387;fill-opacity:1;fill-rule:nonzero;stroke:none;stroke-width:0.1"
       id="path67178" /><path
       d="m 493.488,269.549 v -3.533 h -3.533 v 3.533 h 3.533"
       style="fill:#f57387;fill-opacity:1;fill-rule:nonzero;stroke:none;stroke-width:0.1"
       id="path67180" /><path
       d="m 493.488,294.322 v -3.544 h -3.533 v 3.544 h 3.533"
       style="fill:#ef3456;fill-opacity:1;fill-rule:nonzero;stroke:none;stroke-width:0.1"
       id="path67182" /><path
       d="m 493.488,297.856 v -3.534 h -3.533 v 3.534 h 3.533"
       style="fill:#ef3456;fill-opacity:1;fill-rule:nonzero;stroke:none;stroke-width:0.1"
       id="path67184" /><path
       d="m 493.488,301.399 v -3.543 h -3.533 v 3.543 h 3.533"
       style="fill:#ef3456;fill-opacity:1;fill-rule:nonzero;stroke:none;stroke-width:0.1"
       id="path67186" /><path
       d="m 493.488,304.932 v -3.533 h -3.533 v 3.533 h 3.533"
       style="fill:#ef3456;fill-opacity:1;fill-rule:nonzero;stroke:none;stroke-width:0.1"
       id="path67188" /><path
       d="m 493.488,308.476 v -3.544 h -3.533 v 3.544 h 3.533"
       style="fill:#ef3456;fill-opacity:1;fill-rule:nonzero;stroke:none;stroke-width:0.1"
       id="path67190" /><path
       d="m 493.488,312.009 v -3.533 h -3.533 v 3.533 h 3.533"
       style="fill:#ef3456;fill-opacity:1;fill-rule:nonzero;stroke:none;stroke-width:0.1"
       id="path67192" /><path
       d="m 493.488,315.553 v -3.544 h -3.533 v 3.544 h 3.533"
       style="fill:#ef3456;fill-opacity:1;fill-rule:nonzero;stroke:none;stroke-width:0.1"
       id="path67194" /><path
       d="m 493.488,319.086 v -3.533 h -3.533 v 3.533 h 3.533"
       style="fill:#ef3456;fill-opacity:1;fill-rule:nonzero;stroke:none;stroke-width:0.1"
       id="path67196" /><path
       d="m 489.955,209.401 v -3.543 H 486.4 v 3.543 h 3.555"
       style="fill:#ef3456;fill-opacity:1;fill-rule:nonzero;stroke:none;stroke-width:0.1"
       id="path67198" /><path
       d="m 489.955,258.939 v -3.544 H 486.4 v 3.544 h 3.555"
       style="fill:#ef3456;fill-opacity:1;fill-rule:nonzero;stroke:none;stroke-width:0.1"
       id="path67200" /><path
       d="m 489.955,262.472 v -3.533 H 486.4 v 3.533 h 3.555"
       style="fill:#ef3456;fill-opacity:1;fill-rule:nonzero;stroke:none;stroke-width:0.1"
       id="path67202" /><path
       d="m 489.955,266.016 v -3.544 H 486.4 v 3.544 h 3.555"
       style="fill:#f57387;fill-opacity:1;fill-rule:nonzero;stroke:none;stroke-width:0.1"
       id="path67204" /><path
       d="m 489.955,269.549 v -3.533 H 486.4 v 3.533 h 3.555"
       style="fill:#f57387;fill-opacity:1;fill-rule:nonzero;stroke:none;stroke-width:0.1"
       id="path67206" /><path
       d="m 489.955,273.092 v -3.543 H 486.4 v 3.543 h 3.555"
       style="fill:#f57387;fill-opacity:1;fill-rule:nonzero;stroke:none;stroke-width:0.1"
       id="path67208" /><path
       d="m 489.955,304.932 v -3.533 H 486.4 v 3.533 h 3.555"
       style="fill:#ef3456;fill-opacity:1;fill-rule:nonzero;stroke:none;stroke-width:0.1"
       id="path67210" /><path
       d="m 489.955,308.476 v -3.544 H 486.4 v 3.544 h 3.555"
       style="fill:#ef3456;fill-opacity:1;fill-rule:nonzero;stroke:none;stroke-width:0.1"
       id="path67212" /><path
       d="m 489.955,312.009 v -3.533 H 486.4 v 3.533 h 3.555"
       style="fill:#ef3456;fill-opacity:1;fill-rule:nonzero;stroke:none;stroke-width:0.1"
       id="path67214" /><path
       d="m 489.955,315.553 v -3.544 H 486.4 v 3.544 h 3.555"
       style="fill:#ef3456;fill-opacity:1;fill-rule:nonzero;stroke:none;stroke-width:0.1"
       id="path67216" /><path
       d="m 486.4,212.935 v -3.534 h -3.533 v 3.534 h 3.533"
       style="fill:#ef3456;fill-opacity:1;fill-rule:nonzero;stroke:none;stroke-width:0.1"
       id="path67218" /><path
       d="m 486.4,251.861 v -3.543 h -3.533 v 3.543 h 3.533"
       style="fill:#ef3456;fill-opacity:1;fill-rule:nonzero;stroke:none;stroke-width:0.1"
       id="path67220" /><path
       d="m 486.4,255.395 v -3.534 h -3.533 v 3.534 h 3.533"
       style="fill:#ef3456;fill-opacity:1;fill-rule:nonzero;stroke:none;stroke-width:0.1"
       id="path67222" /><path
       d="m 486.4,258.939 v -3.544 h -3.533 v 3.544 h 3.533"
       style="fill:#ef3456;fill-opacity:1;fill-rule:nonzero;stroke:none;stroke-width:0.1"
       id="path67224" /><path
       d="m 486.4,262.472 v -3.533 h -3.533 v 3.533 h 3.533"
       style="fill:#ef3456;fill-opacity:1;fill-rule:nonzero;stroke:none;stroke-width:0.1"
       id="path67226" /><path
       d="m 486.4,266.016 v -3.544 h -3.533 v 3.544 h 3.533"
       style="fill:#f57387;fill-opacity:1;fill-rule:nonzero;stroke:none;stroke-width:0.1"
       id="path67228" /><path
       d="m 486.4,269.549 v -3.533 h -3.533 v 3.533 h 3.533"
       style="fill:#f57387;fill-opacity:1;fill-rule:nonzero;stroke:none;stroke-width:0.1"
       id="path67230" /><path
       d="m 486.4,273.092 v -3.543 h -3.533 v 3.543 h 3.533"
       style="fill:#f57387;fill-opacity:1;fill-rule:nonzero;stroke:none;stroke-width:0.1"
       id="path67232" /><path
       d="m 486.4,276.625 v -3.533 h -3.533 v 3.533 h 3.533"
       style="fill:#f57387;fill-opacity:1;fill-rule:nonzero;stroke:none;stroke-width:0.1"
       id="path67234" /><path
       d="m 482.867,216.478 v -3.543 h -3.533 v 3.543 h 3.533"
       style="fill:#ef3456;fill-opacity:1;fill-rule:nonzero;stroke:none;stroke-width:0.1"
       id="path67236" /><path
       d="m 482.867,251.861 v -3.543 h -3.533 v 3.543 h 3.533"
       style="fill:#ef3456;fill-opacity:1;fill-rule:nonzero;stroke:none;stroke-width:0.1"
       id="path67238" /><path
       d="m 482.867,255.395 v -3.534 h -3.533 v 3.534 h 3.533"
       style="fill:#ef3456;fill-opacity:1;fill-rule:nonzero;stroke:none;stroke-width:0.1"
       id="path67240" /><path
       d="m 482.867,258.939 v -3.544 h -3.533 v 3.544 h 3.533"
       style="fill:#ef3456;fill-opacity:1;fill-rule:nonzero;stroke:none;stroke-width:0.1"
       id="path67242" /><path
       d="m 482.867,262.472 v -3.533 h -3.533 v 3.533 h 3.533"
       style="fill:#ef3456;fill-opacity:1;fill-rule:nonzero;stroke:none;stroke-width:0.1"
       id="path67244" /><path
       d="m 482.867,266.016 v -3.544 h -3.533 v 3.544 h 3.533"
       style="fill:#f57387;fill-opacity:1;fill-rule:nonzero;stroke:none;stroke-width:0.1"
       id="path67246" /><path
       d="m 482.867,269.549 v -3.533 h -3.533 v 3.533 h 3.533"
       style="fill:#f57387;fill-opacity:1;fill-rule:nonzero;stroke:none;stroke-width:0.1"
       id="path67248" /><path
       d="m 482.867,273.092 v -3.543 h -3.533 v 3.543 h 3.533"
       style="fill:#f57387;fill-opacity:1;fill-rule:nonzero;stroke:none;stroke-width:0.1"
       id="path67250" /><path
       d="m 482.867,276.625 v -3.533 h -3.533 v 3.533 h 3.533"
       style="fill:#f57387;fill-opacity:1;fill-rule:nonzero;stroke:none;stroke-width:0.1"
       id="path67252" /><path
       d="m 479.334,191.704 v -3.533 h -3.543 v 3.533 h 3.543"
       style="fill:#ef3456;fill-opacity:1;fill-rule:nonzero;stroke:none;stroke-width:0.1"
       id="path67254" /><path
       d="m 479.334,220.011 v -3.533 h -3.543 v 3.533 h 3.543"
       style="fill:#ef3456;fill-opacity:1;fill-rule:nonzero;stroke:none;stroke-width:0.1"
       id="path67256" /><path
       d="m 479.334,241.241 v -3.533 h -3.543 v 3.533 h 3.543"
       style="fill:#ef3456;fill-opacity:1;fill-rule:nonzero;stroke:none;stroke-width:0.1"
       id="path67258" /><path
       d="m 479.334,244.78 v -3.533 h -3.543 v 3.533 h 3.543"
       style="fill:#ef3456;fill-opacity:1;fill-rule:nonzero;stroke:none;stroke-width:0.1"
       id="path67260" /><path
       d="m 479.334,248.318 v -3.533 h -3.543 v 3.533 h 3.543"
       style="fill:#ef3456;fill-opacity:1;fill-rule:nonzero;stroke:none;stroke-width:0.1"
       id="path67262" /><path
       d="m 479.334,251.861 v -3.543 h -3.543 v 3.543 h 3.543"
       style="fill:#ef3456;fill-opacity:1;fill-rule:nonzero;stroke:none;stroke-width:0.1"
       id="path67264" /><path
       d="m 479.334,255.395 v -3.534 h -3.543 v 3.534 h 3.543"
       style="fill:#ef3456;fill-opacity:1;fill-rule:nonzero;stroke:none;stroke-width:0.1"
       id="path67266" /><path
       d="m 479.334,258.939 v -3.544 h -3.543 v 3.544 h 3.543"
       style="fill:#ef3456;fill-opacity:1;fill-rule:nonzero;stroke:none;stroke-width:0.1"
       id="path67268" /><path
       d="m 479.334,262.472 v -3.533 h -3.543 v 3.533 h 3.543"
       style="fill:#ef3456;fill-opacity:1;fill-rule:nonzero;stroke:none;stroke-width:0.1"
       id="path67270" /><path
       d="m 479.334,266.016 v -3.544 h -3.543 v 3.544 h 3.543"
       style="fill:#ef3456;fill-opacity:1;fill-rule:nonzero;stroke:none;stroke-width:0.1"
       id="path67272" /><path
       d="m 479.334,269.549 v -3.533 h -3.543 v 3.533 h 3.543"
       style="fill:#ef3456;fill-opacity:1;fill-rule:nonzero;stroke:none;stroke-width:0.1"
       id="path67274" /><path
       d="m 479.334,273.092 v -3.543 h -3.543 v 3.543 h 3.543"
       style="fill:#f57387;fill-opacity:1;fill-rule:nonzero;stroke:none;stroke-width:0.1"
       id="path67276" /><path
       d="m 479.334,276.625 v -3.533 h -3.543 v 3.533 h 3.543"
       style="fill:#f57387;fill-opacity:1;fill-rule:nonzero;stroke:none;stroke-width:0.1"
       id="path67278" /><path
       d="m 479.334,280.168 v -3.543 h -3.543 v 3.543 h 3.543"
       style="fill:#f57387;fill-opacity:1;fill-rule:nonzero;stroke:none;stroke-width:0.1"
       id="path67280" /><path
       d="m 475.791,191.704 v -3.533 h -3.533 v 3.533 h 3.533"
       style="fill:#ef3456;fill-opacity:1;fill-rule:nonzero;stroke:none;stroke-width:0.1"
       id="path67282" /><path
       d="m 475.791,220.011 v -3.533 h -3.533 v 3.533 h 3.533"
       style="fill:#ef3456;fill-opacity:1;fill-rule:nonzero;stroke:none;stroke-width:0.1"
       id="path67284" /><path
       d="m 475.791,223.555 v -3.544 h -3.533 v 3.544 h 3.533"
       style="fill:#ef3456;fill-opacity:1;fill-rule:nonzero;stroke:none;stroke-width:0.1"
       id="path67286" /><path
       d="m 475.791,237.708 v -3.544 h -3.533 v 3.544 h 3.533"
       style="fill:#ef3456;fill-opacity:1;fill-rule:nonzero;stroke:none;stroke-width:0.1"
       id="path67288" /><path
       d="m 475.791,241.241 v -3.533 h -3.533 v 3.533 h 3.533"
       style="fill:#ef3456;fill-opacity:1;fill-rule:nonzero;stroke:none;stroke-width:0.1"
       id="path67290" /><path
       d="m 475.791,244.785 v -3.544 h -3.533 v 3.544 h 3.533"
       style="fill:#ef3456;fill-opacity:1;fill-rule:nonzero;stroke:none;stroke-width:0.1"
       id="path67292" /><path
       d="m 475.791,248.318 v -3.533 h -3.533 v 3.533 h 3.533"
       style="fill:#ef3456;fill-opacity:1;fill-rule:nonzero;stroke:none;stroke-width:0.1"
       id="path67294" /><path
       d="m 475.791,251.861 v -3.543 h -3.533 v 3.543 h 3.533"
       style="fill:#ef3456;fill-opacity:1;fill-rule:nonzero;stroke:none;stroke-width:0.1"
       id="path67296" /><path
       d="m 475.791,255.395 v -3.534 h -3.533 v 3.534 h 3.533"
       style="fill:#ef3456;fill-opacity:1;fill-rule:nonzero;stroke:none;stroke-width:0.1"
       id="path67298" /><path
       d="m 475.791,258.939 v -3.544 h -3.533 v 3.544 h 3.533"
       style="fill:#ef3456;fill-opacity:1;fill-rule:nonzero;stroke:none;stroke-width:0.1"
       id="path67300" /><path
       d="m 475.791,262.472 v -3.533 h -3.533 v 3.533 h 3.533"
       style="fill:#ef3456;fill-opacity:1;fill-rule:nonzero;stroke:none;stroke-width:0.1"
       id="path67302" /><path
       d="m 475.791,266.016 v -3.544 h -3.533 v 3.544 h 3.533"
       style="fill:#ef3456;fill-opacity:1;fill-rule:nonzero;stroke:none;stroke-width:0.1"
       id="path67304" /><path
       d="m 475.791,269.549 v -3.533 h -3.533 v 3.533 h 3.533"
       style="fill:#f57387;fill-opacity:1;fill-rule:nonzero;stroke:none;stroke-width:0.1"
       id="path67306" /><path
       d="m 475.791,273.092 v -3.543 h -3.533 v 3.543 h 3.533"
       style="fill:#f57387;fill-opacity:1;fill-rule:nonzero;stroke:none;stroke-width:0.1"
       id="path67308" /><path
       d="m 475.791,276.625 v -3.533 h -3.533 v 3.533 h 3.533"
       style="fill:#f57387;fill-opacity:1;fill-rule:nonzero;stroke:none;stroke-width:0.1"
       id="path67310" /><path
       d="m 475.791,280.168 v -3.543 h -3.533 v 3.543 h 3.533"
       style="fill:#f57387;fill-opacity:1;fill-rule:nonzero;stroke:none;stroke-width:0.1"
       id="path67312" /><path
       d="m 472.258,191.704 v -3.533 h -3.533 v 3.533 h 3.533"
       style="fill:#ef3456;fill-opacity:1;fill-rule:nonzero;stroke:none;stroke-width:0.1"
       id="path67314" /><path
       d="m 472.258,195.248 v -3.544 h -3.533 v 3.544 h 3.533"
       style="fill:#ef3456;fill-opacity:1;fill-rule:nonzero;stroke:none;stroke-width:0.1"
       id="path67316" /><path
       d="m 472.258,198.781 v -3.533 h -3.533 v 3.533 h 3.533"
       style="fill:#ef3456;fill-opacity:1;fill-rule:nonzero;stroke:none;stroke-width:0.1"
       id="path67318" /><path
       d="m 472.258,202.324 v -3.543 h -3.533 v 3.543 h 3.533"
       style="fill:#ef3456;fill-opacity:1;fill-rule:nonzero;stroke:none;stroke-width:0.1"
       id="path67320" /><path
       d="m 472.258,205.858 v -3.534 h -3.533 v 3.534 h 3.533"
       style="fill:#ef3456;fill-opacity:1;fill-rule:nonzero;stroke:none;stroke-width:0.1"
       id="path67322" /><path
       d="m 472.258,209.401 v -3.543 h -3.533 v 3.543 h 3.533"
       style="fill:#ef3456;fill-opacity:1;fill-rule:nonzero;stroke:none;stroke-width:0.1"
       id="path67324" /><path
       d="m 472.258,212.935 v -3.534 h -3.533 v 3.534 h 3.533"
       style="fill:#ef3456;fill-opacity:1;fill-rule:nonzero;stroke:none;stroke-width:0.1"
       id="path67326" /><path
       d="m 472.258,216.478 v -3.543 h -3.533 v 3.543 h 3.533"
       style="fill:#ef3456;fill-opacity:1;fill-rule:nonzero;stroke:none;stroke-width:0.1"
       id="path67328" /><path
       d="m 472.258,220.011 v -3.533 h -3.533 v 3.533 h 3.533"
       style="fill:#ef3456;fill-opacity:1;fill-rule:nonzero;stroke:none;stroke-width:0.1"
       id="path67330" /><path
       d="m 472.258,223.555 v -3.544 h -3.533 v 3.544 h 3.533"
       style="fill:#ef3456;fill-opacity:1;fill-rule:nonzero;stroke:none;stroke-width:0.1"
       id="path67332" /><path
       d="m 472.258,227.088 v -3.533 h -3.533 v 3.533 h 3.533"
       style="fill:#ef3456;fill-opacity:1;fill-rule:nonzero;stroke:none;stroke-width:0.1"
       id="path67334" /><path
       d="m 472.258,230.631 v -3.543 h -3.533 v 3.543 h 3.533"
       style="fill:#ef3456;fill-opacity:1;fill-rule:nonzero;stroke:none;stroke-width:0.1"
       id="path67336" /><path
       d="m 472.258,234.164 v -3.533 h -3.533 v 3.533 h 3.533"
       style="fill:#ef3456;fill-opacity:1;fill-rule:nonzero;stroke:none;stroke-width:0.1"
       id="path67338" /><path
       d="m 472.258,237.708 v -3.544 h -3.533 v 3.544 h 3.533"
       style="fill:#ef3456;fill-opacity:1;fill-rule:nonzero;stroke:none;stroke-width:0.1"
       id="path67340" /><path
       d="m 472.258,241.241 v -3.533 h -3.533 v 3.533 h 3.533"
       style="fill:#ef3456;fill-opacity:1;fill-rule:nonzero;stroke:none;stroke-width:0.1"
       id="path67342" /><path
       d="m 472.258,251.861 v -3.543 h -3.533 v 3.543 h 3.533"
       style="fill:#ef3456;fill-opacity:1;fill-rule:nonzero;stroke:none;stroke-width:0.1"
       id="path67344" /><path
       d="m 472.258,255.395 v -3.534 h -3.533 v 3.534 h 3.533"
       style="fill:#ef3456;fill-opacity:1;fill-rule:nonzero;stroke:none;stroke-width:0.1"
       id="path67346" /><path
       d="m 472.258,258.939 v -3.544 h -3.533 v 3.544 h 3.533"
       style="fill:#ef3456;fill-opacity:1;fill-rule:nonzero;stroke:none;stroke-width:0.1"
       id="path67348" /><path
       d="m 472.258,262.472 v -3.533 h -3.533 v 3.533 h 3.533"
       style="fill:#f57387;fill-opacity:1;fill-rule:nonzero;stroke:none;stroke-width:0.1"
       id="path67350" /><path
       d="m 472.258,266.016 v -3.544 h -3.533 v 3.544 h 3.533"
       style="fill:#f57387;fill-opacity:1;fill-rule:nonzero;stroke:none;stroke-width:0.1"
       id="path67352" /><path
       d="m 472.258,269.549 v -3.533 h -3.533 v 3.533 h 3.533"
       style="fill:#ef3456;fill-opacity:1;fill-rule:nonzero;stroke:none;stroke-width:0.1"
       id="path67354" /><path
       d="m 472.258,273.092 v -3.543 h -3.533 v 3.543 h 3.533"
       style="fill:#ef3456;fill-opacity:1;fill-rule:nonzero;stroke:none;stroke-width:0.1"
       id="path67356" /><path
       d="m 472.258,276.625 v -3.533 h -3.533 v 3.533 h 3.533"
       style="fill:#f57387;fill-opacity:1;fill-rule:nonzero;stroke:none;stroke-width:0.1"
       id="path67358" /><path
       d="m 472.258,280.168 v -3.543 h -3.533 v 3.543 h 3.533"
       style="fill:#f57387;fill-opacity:1;fill-rule:nonzero;stroke:none;stroke-width:0.1"
       id="path67360" /><path
       d="m 468.725,227.088 v -3.533 h -3.545 v 3.533 h 3.545"
       style="fill:#f57387;fill-opacity:1;fill-rule:nonzero;stroke:none;stroke-width:0.1"
       id="path67362" /><path
       d="m 468.725,230.631 v -3.543 h -3.545 v 3.543 h 3.545"
       style="fill:#ef3456;fill-opacity:1;fill-rule:nonzero;stroke:none;stroke-width:0.1"
       id="path67364" /><path
       d="m 468.725,255.395 v -3.534 h -3.545 v 3.534 h 3.545"
       style="fill:#f57387;fill-opacity:1;fill-rule:nonzero;stroke:none;stroke-width:0.1"
       id="path67366" /><path
       d="m 468.725,258.939 v -3.544 h -3.545 v 3.544 h 3.545"
       style="fill:#f57387;fill-opacity:1;fill-rule:nonzero;stroke:none;stroke-width:0.1"
       id="path67368" /><path
       d="m 468.725,262.472 v -3.533 h -3.545 v 3.533 h 3.545"
       style="fill:#f57387;fill-opacity:1;fill-rule:nonzero;stroke:none;stroke-width:0.1"
       id="path67370" /><path
       d="m 468.725,266.016 v -3.544 h -3.545 v 3.544 h 3.545"
       style="fill:#f57387;fill-opacity:1;fill-rule:nonzero;stroke:none;stroke-width:0.1"
       id="path67372" /><path
       d="m 468.725,269.549 v -3.533 h -3.545 v 3.533 h 3.545"
       style="fill:#f57387;fill-opacity:1;fill-rule:nonzero;stroke:none;stroke-width:0.1"
       id="path67374" /><path
       d="m 468.725,273.092 v -3.543 h -3.545 v 3.543 h 3.545"
       style="fill:#f57387;fill-opacity:1;fill-rule:nonzero;stroke:none;stroke-width:0.1"
       id="path67376" /><path
       d="m 468.725,276.625 v -3.533 h -3.545 v 3.533 h 3.545"
       style="fill:#f57387;fill-opacity:1;fill-rule:nonzero;stroke:none;stroke-width:0.1"
       id="path67378" /><path
       d="m 468.725,280.168 v -3.543 h -3.545 v 3.543 h 3.545"
       style="fill:#f57387;fill-opacity:1;fill-rule:nonzero;stroke:none;stroke-width:0.1"
       id="path67380" /><path
       d="m 465.18,258.939 v -3.544 h -3.543 v 3.544 h 3.543"
       style="fill:#f57387;fill-opacity:1;fill-rule:nonzero;stroke:none;stroke-width:0.1"
       id="path67382" /><path
       d="m 465.18,262.472 v -3.533 h -3.543 v 3.533 h 3.543"
       style="fill:#f57387;fill-opacity:1;fill-rule:nonzero;stroke:none;stroke-width:0.1"
       id="path67384" /><path
       d="m 465.18,266.016 v -3.544 h -3.543 v 3.544 h 3.543"
       style="fill:#ef3456;fill-opacity:1;fill-rule:nonzero;stroke:none;stroke-width:0.1"
       id="path67386" /><path
       d="m 465.18,269.549 v -3.533 h -3.543 v 3.533 h 3.543"
       style="fill:#ef3456;fill-opacity:1;fill-rule:nonzero;stroke:none;stroke-width:0.1"
       id="path67388" /><path
       d="m 465.18,273.092 v -3.543 h -3.543 v 3.543 h 3.543"
       style="fill:#f57387;fill-opacity:1;fill-rule:nonzero;stroke:none;stroke-width:0.1"
       id="path67390" /><path
       d="m 465.18,276.625 v -3.533 h -3.543 v 3.533 h 3.543"
       style="fill:#f57387;fill-opacity:1;fill-rule:nonzero;stroke:none;stroke-width:0.1"
       id="path67392" /><path
       d="m 461.637,255.395 v -3.534 h -3.533 v 3.534 h 3.533"
       style="fill:#ef3456;fill-opacity:1;fill-rule:nonzero;stroke:none;stroke-width:0.1"
       id="path67394" /><path
       d="m 461.637,258.939 v -3.544 h -3.533 v 3.544 h 3.533"
       style="fill:#ef3456;fill-opacity:1;fill-rule:nonzero;stroke:none;stroke-width:0.1"
       id="path67396" /><path
       d="m 461.637,262.472 v -3.533 h -3.533 v 3.533 h 3.533"
       style="fill:#f57387;fill-opacity:1;fill-rule:nonzero;stroke:none;stroke-width:0.1"
       id="path67398" /><path
       d="m 461.637,266.016 v -3.544 h -3.533 v 3.544 h 3.533"
       style="fill:#f57387;fill-opacity:1;fill-rule:nonzero;stroke:none;stroke-width:0.1"
       id="path67400" /><path
       d="m 461.637,269.549 v -3.533 h -3.533 v 3.533 h 3.533"
       style="fill:#f57387;fill-opacity:1;fill-rule:nonzero;stroke:none;stroke-width:0.1"
       id="path67402" /><path
       d="m 461.637,273.092 v -3.543 h -3.533 v 3.543 h 3.533"
       style="fill:#f57387;fill-opacity:1;fill-rule:nonzero;stroke:none;stroke-width:0.1"
       id="path67404" /><path
       d="m 458.104,255.395 v -3.534 h -3.534 v 3.534 h 3.534"
       style="fill:#ef3456;fill-opacity:1;fill-rule:nonzero;stroke:none;stroke-width:0.1"
       id="path67406" /><path
       d="m 458.104,258.939 v -3.544 h -3.534 v 3.544 h 3.534"
       style="fill:#f57387;fill-opacity:1;fill-rule:nonzero;stroke:none;stroke-width:0.1"
       id="path67408" /><path
       d="m 458.104,262.472 v -3.533 h -3.534 v 3.533 h 3.534"
       style="fill:#f57387;fill-opacity:1;fill-rule:nonzero;stroke:none;stroke-width:0.1"
       id="path67410" /><path
       d="m 458.104,266.016 v -3.544 h -3.534 v 3.544 h 3.534"
       style="fill:#f57387;fill-opacity:1;fill-rule:nonzero;stroke:none;stroke-width:0.1"
       id="path67412" /><path
       d="m 458.104,269.549 v -3.533 h -3.534 v 3.533 h 3.534"
       style="fill:#f57387;fill-opacity:1;fill-rule:nonzero;stroke:none;stroke-width:0.1"
       id="path67414" /><path
       d="m 454.57,258.939 v -3.544 h -3.533 v 3.544 h 3.533"
       style="fill:#f57387;fill-opacity:1;fill-rule:nonzero;stroke:none;stroke-width:0.1"
       id="path67416" /><path
       d="m 454.57,262.472 v -3.533 h -3.533 v 3.533 h 3.533"
       style="fill:#f57387;fill-opacity:1;fill-rule:nonzero;stroke:none;stroke-width:0.1"
       id="path67418" /><path
       d="m 454.57,266.016 v -3.544 h -3.533 v 3.544 h 3.533"
       style="fill:#ef3456;fill-opacity:1;fill-rule:nonzero;stroke:none;stroke-width:0.1"
       id="path67420" /><path
       d="m 451.037,258.939 v -3.544 h -3.553 v 3.544 h 3.553"
       style="fill:#ef3456;fill-opacity:1;fill-rule:nonzero;stroke:none;stroke-width:0.1"
       id="path67422" /><path
       d="m 451.037,262.472 v -3.533 h -3.553 v 3.533 h 3.553"
       style="fill:#ef3456;fill-opacity:1;fill-rule:nonzero;stroke:none;stroke-width:0.1"
       id="path67424" /><path
       d="m 447.484,255.395 v -3.534 h -3.533 v 3.534 h 3.533"
       style="fill:#ef3456;fill-opacity:1;fill-rule:nonzero;stroke:none;stroke-width:0.1"
       id="path67426" /><path
       d="m 447.484,258.939 v -3.544 h -3.533 v 3.544 h 3.533"
       style="fill:#ef3456;fill-opacity:1;fill-rule:nonzero;stroke:none;stroke-width:0.1"
       id="path67428" /><path
       d="m 443.951,255.395 v -3.534 h -3.533 v 3.534 h 3.533"
       style="fill:#ef3456;fill-opacity:1;fill-rule:nonzero;stroke:none;stroke-width:0.1"
       id="path67430" /></g></svg>