<?xml version="1.0" encoding="UTF-8" standalone="no"?>
<svg
   xmlns:dc="http://purl.org/dc/elements/1.1/"
   xmlns:cc="http://creativecommons.org/ns#"
   xmlns:rdf="http://www.w3.org/1999/02/22-rdf-syntax-ns#"
   xmlns:svg="http://www.w3.org/2000/svg"
   xmlns="http://www.w3.org/2000/svg"
   viewBox="0 0 70.759995 108.51733"
   height="108.51733"
   width="70.759995"
   xml:space="preserve"
   id="svg79935"
   version="1.1"><metadata
     id="metadata79941"><rdf:RDF><cc:Work
         rdf:about=""><dc:format>image/svg+xml</dc:format><dc:type
           rdf:resource="http://purl.org/dc/dcmitype/StillImage" /><dc:title></dc:title></cc:Work></rdf:RDF></metadata><defs
     id="defs79939" /><g
     transform="matrix(1.3333333,0,0,-1.3333333,-731.11465,429.55732)"
     id="g79943"><path
       d="m 580.165,315.091 v 3.533 h -3.533 v 3.544 h -3.532 -3.544 v -3.544 -3.533 h 3.544 3.532 v -3.544 h 3.533 3.555 v 3.544 h -3.555"
       style="fill:#fffeee;fill-opacity:1;fill-rule:nonzero;stroke:none;stroke-width:0.1"
       id="path82565" /><path
       d="m 580.165,265.554 h -3.533 v 10.61 H 573.1 v 3.543 3.533 3.544 3.533 h 3.532 v 3.544 3.534 3.543 h -3.532 -3.544 v 3.533 h -3.534 v -3.533 h -3.533 v -3.543 h -3.544 v -3.534 -3.544 -3.533 -3.544 -3.533 -3.543 -3.533 -3.544 -3.533 -3.544 -3.533 -3.543 h 3.544 v -3.534 -3.542 h -3.544 v -3.534 h 3.544 3.533 3.534 v 3.534 h 3.544 3.532 3.533 v -3.534 h 3.555 v 3.534 3.542 3.534 3.543 3.533 h -3.555 v 3.544"
       style="fill:#fffeee;fill-opacity:1;fill-rule:nonzero;stroke:none;stroke-width:0.1"
       id="path82567" /><path
       d="m 597.873,247.858 v 3.542 h -3.554 v 7.077 h -3.533 v 3.533 3.544 h 3.533 v 3.533 3.544 3.533 3.543 3.533 3.544 3.533 3.544 h -3.533 v 3.534 3.543 3.533 h -3.533 v 3.543 h -3.533 v 3.533 h -3.555 -3.533 v 3.544 h -3.532 -3.544 v 3.533 3.544 h -3.534 -3.533 -3.544 v -3.544 h -3.543 v -3.533 h -3.533 v -3.544 h -3.533 v -3.533 h 3.533 3.533 3.543 v -3.543 -3.533 h -3.543 v -3.543 -3.534 -3.544 -3.533 h -3.533 v -3.544 -3.533 -3.543 h -3.533 v -3.533 -3.544 -3.533 -3.544 h 3.533 3.533 3.543 v 3.544 3.533 3.544 3.533 3.543 3.533 3.544 3.533 3.544 3.534 h 3.544 v 3.543 h 3.533 v 3.533 h 3.534 v -3.533 h 3.544 3.532 v -3.543 -3.534 -3.544 H 573.1 v -3.533 -3.544 -3.533 -3.543 h 3.532 v -3.533 -3.544 -3.533 h 3.533 v -3.544 h 3.555 v -3.533 -3.543 -3.534 -3.542 -3.534 h -3.555 v 3.534 h -3.533 -3.532 -3.544 v -3.534 h -3.534 -3.533 -3.544 v 3.534 h -3.543 v -3.534 -3.544 h 3.543 3.544 3.533 3.534 3.544 3.532 3.533 3.555 3.533 3.533 3.533 3.554 3.533 v 3.544 3.534 h -3.533"
       style="fill:#1b1918;fill-opacity:1;fill-rule:nonzero;stroke:none;stroke-width:0.1"
       id="path82569" /><path
       d="m 601.406,244.324 v -3.544 h -3.533 v 3.544 h 3.533"
       style="fill:#100f0d;fill-opacity:1;fill-rule:nonzero;stroke:none;stroke-width:0.1"
       id="path82571" /><path
       d="m 601.406,247.858 v -3.534 h -3.533 v 3.534 h 3.533"
       style="fill:#100f0d;fill-opacity:1;fill-rule:nonzero;stroke:none;stroke-width:0.1"
       id="path82573" /><path
       d="m 597.873,244.324 v -3.544 h -3.554 v 3.544 h 3.554"
       style="fill:#100f0d;fill-opacity:1;fill-rule:nonzero;stroke:none;stroke-width:0.1"
       id="path82575" /><path
       d="m 597.873,247.858 v -3.534 h -3.554 v 3.534 h 3.554"
       style="fill:#20262e;fill-opacity:1;fill-rule:nonzero;stroke:none;stroke-width:0.1"
       id="path82577" /><path
       d="m 597.873,251.4 v -3.542 h -3.554 v 3.542 h 3.554"
       style="fill:#100f0d;fill-opacity:1;fill-rule:nonzero;stroke:none;stroke-width:0.1"
       id="path82579" /><path
       d="m 594.319,244.324 v -3.544 h -3.533 v 3.544 h 3.533"
       style="fill:#100f0d;fill-opacity:1;fill-rule:nonzero;stroke:none;stroke-width:0.1"
       id="path82581" /><path
       d="m 594.319,247.858 v -3.534 h -3.533 v 3.534 h 3.533"
       style="fill:#20262e;fill-opacity:1;fill-rule:nonzero;stroke:none;stroke-width:0.1"
       id="path82583" /><path
       d="m 594.319,251.4 v -3.542 h -3.533 v 3.542 h 3.533"
       style="fill:#20262e;fill-opacity:1;fill-rule:nonzero;stroke:none;stroke-width:0.1"
       id="path82585" /><path
       d="M 594.319,254.934 V 251.4 h -3.533 v 3.534 h 3.533"
       style="fill:#20262e;fill-opacity:1;fill-rule:nonzero;stroke:none;stroke-width:0.1"
       id="path82587" /><path
       d="m 594.319,258.477 v -3.543 h -3.533 v 3.543 h 3.533"
       style="fill:#100f0d;fill-opacity:1;fill-rule:nonzero;stroke:none;stroke-width:0.1"
       id="path82589" /><path
       d="m 594.319,269.087 v -3.533 h -3.533 v 3.533 h 3.533"
       style="fill:#100f0d;fill-opacity:1;fill-rule:nonzero;stroke:none;stroke-width:0.1"
       id="path82591" /><path
       d="m 594.319,272.631 v -3.544 h -3.533 v 3.544 h 3.533"
       style="fill:#100f0d;fill-opacity:1;fill-rule:nonzero;stroke:none;stroke-width:0.1"
       id="path82593" /><path
       d="m 594.319,276.164 v -3.533 h -3.533 v 3.533 h 3.533"
       style="fill:#100f0d;fill-opacity:1;fill-rule:nonzero;stroke:none;stroke-width:0.1"
       id="path82595" /><path
       d="m 594.319,279.707 v -3.543 h -3.533 v 3.543 h 3.533"
       style="fill:#100f0d;fill-opacity:1;fill-rule:nonzero;stroke:none;stroke-width:0.1"
       id="path82597" /><path
       d="m 594.319,283.24 v -3.533 h -3.533 v 3.533 h 3.533"
       style="fill:#100f0d;fill-opacity:1;fill-rule:nonzero;stroke:none;stroke-width:0.1"
       id="path82599" /><path
       d="m 594.319,286.784 v -3.544 h -3.533 v 3.544 h 3.533"
       style="fill:#100f0d;fill-opacity:1;fill-rule:nonzero;stroke:none;stroke-width:0.1"
       id="path82601" /><path
       d="m 594.319,290.317 v -3.533 h -3.533 v 3.533 h 3.533"
       style="fill:#100f0d;fill-opacity:1;fill-rule:nonzero;stroke:none;stroke-width:0.1"
       id="path82603" /><path
       d="m 594.319,293.861 v -3.544 h -3.533 v 3.544 h 3.533"
       style="fill:#100f0d;fill-opacity:1;fill-rule:nonzero;stroke:none;stroke-width:0.1"
       id="path82605" /><path
       d="m 590.786,244.324 v -3.544 h -3.533 v 3.544 h 3.533"
       style="fill:#20262e;fill-opacity:1;fill-rule:nonzero;stroke:none;stroke-width:0.1"
       id="path82607" /><path
       d="m 590.786,247.858 v -3.534 h -3.533 v 3.534 h 3.533"
       style="fill:#100f0d;fill-opacity:1;fill-rule:nonzero;stroke:none;stroke-width:0.1"
       id="path82609" /><path
       d="m 590.786,251.4 v -3.542 h -3.533 v 3.542 h 3.533"
       style="fill:#100f0d;fill-opacity:1;fill-rule:nonzero;stroke:none;stroke-width:0.1"
       id="path82611" /><path
       d="M 590.786,254.934 V 251.4 h -3.533 v 3.534 h 3.533"
       style="fill:#100f0d;fill-opacity:1;fill-rule:nonzero;stroke:none;stroke-width:0.1"
       id="path82613" /><path
       d="m 590.786,258.477 v -3.543 h -3.533 v 3.543 h 3.533"
       style="fill:#100f0d;fill-opacity:1;fill-rule:nonzero;stroke:none;stroke-width:0.1"
       id="path82615" /><path
       d="m 590.786,262.01 v -3.533 h -3.533 v 3.533 h 3.533"
       style="fill:#100f0d;fill-opacity:1;fill-rule:nonzero;stroke:none;stroke-width:0.1"
       id="path82617" /><path
       d="m 590.786,265.554 v -3.544 h -3.533 v 3.544 h 3.533"
       style="fill:#100f0d;fill-opacity:1;fill-rule:nonzero;stroke:none;stroke-width:0.1"
       id="path82619" /><path
       d="m 590.786,269.087 v -3.533 h -3.533 v 3.533 h 3.533"
       style="fill:#100f0d;fill-opacity:1;fill-rule:nonzero;stroke:none;stroke-width:0.1"
       id="path82621" /><path
       d="m 590.786,272.631 v -3.544 h -3.533 v 3.544 h 3.533"
       style="fill:#100f0d;fill-opacity:1;fill-rule:nonzero;stroke:none;stroke-width:0.1"
       id="path82623" /><path
       d="m 590.786,276.164 v -3.533 h -3.533 v 3.533 h 3.533"
       style="fill:#100f0d;fill-opacity:1;fill-rule:nonzero;stroke:none;stroke-width:0.1"
       id="path82625" /><path
       d="m 590.786,279.707 v -3.543 h -3.533 v 3.543 h 3.533"
       style="fill:#20262e;fill-opacity:1;fill-rule:nonzero;stroke:none;stroke-width:0.1"
       id="path82627" /><path
       d="m 590.786,283.24 v -3.533 h -3.533 v 3.533 h 3.533"
       style="fill:#20262e;fill-opacity:1;fill-rule:nonzero;stroke:none;stroke-width:0.1"
       id="path82629" /><path
       d="m 590.786,286.784 v -3.544 h -3.533 v 3.544 h 3.533"
       style="fill:#20262e;fill-opacity:1;fill-rule:nonzero;stroke:none;stroke-width:0.1"
       id="path82631" /><path
       d="m 590.786,290.317 v -3.533 h -3.533 v 3.533 h 3.533"
       style="fill:#20262e;fill-opacity:1;fill-rule:nonzero;stroke:none;stroke-width:0.1"
       id="path82633" /><path
       d="m 590.786,293.861 v -3.544 h -3.533 v 3.544 h 3.533"
       style="fill:#20262e;fill-opacity:1;fill-rule:nonzero;stroke:none;stroke-width:0.1"
       id="path82635" /><path
       d="m 590.786,297.395 v -3.534 h -3.533 v 3.534 h 3.533"
       style="fill:#100f0d;fill-opacity:1;fill-rule:nonzero;stroke:none;stroke-width:0.1"
       id="path82637" /><path
       d="m 590.786,300.938 v -3.543 h -3.533 v 3.543 h 3.533"
       style="fill:#100f0d;fill-opacity:1;fill-rule:nonzero;stroke:none;stroke-width:0.1"
       id="path82639" /><path
       d="m 590.786,304.471 v -3.533 h -3.533 v 3.533 h 3.533"
       style="fill:#100f0d;fill-opacity:1;fill-rule:nonzero;stroke:none;stroke-width:0.1"
       id="path82641" /><path
       d="m 587.253,244.324 v -3.544 h -3.533 v 3.544 h 3.533"
       style="fill:#20262e;fill-opacity:1;fill-rule:nonzero;stroke:none;stroke-width:0.1"
       id="path82643" /><path
       d="m 587.253,247.858 v -3.534 h -3.533 v 3.534 h 3.533"
       style="fill:#100f0d;fill-opacity:1;fill-rule:nonzero;stroke:none;stroke-width:0.1"
       id="path82645" /><path
       d="m 587.253,251.4 v -3.542 h -3.533 v 3.542 h 3.533"
       style="fill:#100f0d;fill-opacity:1;fill-rule:nonzero;stroke:none;stroke-width:0.1"
       id="path82647" /><path
       d="M 587.253,254.934 V 251.4 h -3.533 v 3.534 h 3.533"
       style="fill:#100f0d;fill-opacity:1;fill-rule:nonzero;stroke:none;stroke-width:0.1"
       id="path82649" /><path
       d="m 587.253,258.477 v -3.543 h -3.533 v 3.543 h 3.533"
       style="fill:#100f0d;fill-opacity:1;fill-rule:nonzero;stroke:none;stroke-width:0.1"
       id="path82651" /><path
       d="m 587.253,262.01 v -3.533 h -3.533 v 3.533 h 3.533"
       style="fill:#100f0d;fill-opacity:1;fill-rule:nonzero;stroke:none;stroke-width:0.1"
       id="path82653" /><path
       d="m 587.253,265.554 v -3.544 h -3.533 v 3.544 h 3.533"
       style="fill:#100f0d;fill-opacity:1;fill-rule:nonzero;stroke:none;stroke-width:0.1"
       id="path82655" /><path
       d="m 587.253,269.087 v -3.533 h -3.533 v 3.533 h 3.533"
       style="fill:#100f0d;fill-opacity:1;fill-rule:nonzero;stroke:none;stroke-width:0.1"
       id="path82657" /><path
       d="m 587.253,272.631 v -3.544 h -3.533 v 3.544 h 3.533"
       style="fill:#100f0d;fill-opacity:1;fill-rule:nonzero;stroke:none;stroke-width:0.1"
       id="path82659" /><path
       d="m 587.253,276.164 v -3.533 h -3.533 v 3.533 h 3.533"
       style="fill:#20262e;fill-opacity:1;fill-rule:nonzero;stroke:none;stroke-width:0.1"
       id="path82661" /><path
       d="m 587.253,279.707 v -3.543 h -3.533 v 3.543 h 3.533"
       style="fill:#20262e;fill-opacity:1;fill-rule:nonzero;stroke:none;stroke-width:0.1"
       id="path82663" /><path
       d="m 587.253,283.24 v -3.533 h -3.533 v 3.533 h 3.533"
       style="fill:#20262e;fill-opacity:1;fill-rule:nonzero;stroke:none;stroke-width:0.1"
       id="path82665" /><path
       d="m 587.253,286.784 v -3.544 h -3.533 v 3.544 h 3.533"
       style="fill:#20262e;fill-opacity:1;fill-rule:nonzero;stroke:none;stroke-width:0.1"
       id="path82667" /><path
       d="m 587.253,290.317 v -3.533 h -3.533 v 3.533 h 3.533"
       style="fill:#20262e;fill-opacity:1;fill-rule:nonzero;stroke:none;stroke-width:0.1"
       id="path82669" /><path
       d="m 587.253,293.861 v -3.544 h -3.533 v 3.544 h 3.533"
       style="fill:#20262e;fill-opacity:1;fill-rule:nonzero;stroke:none;stroke-width:0.1"
       id="path82671" /><path
       d="m 587.253,297.395 v -3.534 h -3.533 v 3.534 h 3.533"
       style="fill:#20262e;fill-opacity:1;fill-rule:nonzero;stroke:none;stroke-width:0.1"
       id="path82673" /><path
       d="m 587.253,300.938 v -3.543 h -3.533 v 3.543 h 3.533"
       style="fill:#20262e;fill-opacity:1;fill-rule:nonzero;stroke:none;stroke-width:0.1"
       id="path82675" /><path
       d="m 587.253,304.471 v -3.533 h -3.533 v 3.533 h 3.533"
       style="fill:#20262e;fill-opacity:1;fill-rule:nonzero;stroke:none;stroke-width:0.1"
       id="path82677" /><path
       d="m 587.253,308.014 v -3.543 h -3.533 v 3.543 h 3.533"
       style="fill:#100f0d;fill-opacity:1;fill-rule:nonzero;stroke:none;stroke-width:0.1"
       id="path82679" /><path
       d="m 583.72,244.324 v -3.544 h -3.555 v 3.544 h 3.555"
       style="fill:#20262e;fill-opacity:1;fill-rule:nonzero;stroke:none;stroke-width:0.1"
       id="path82681" /><path
       d="m 583.72,247.858 v -3.534 h -3.555 v 3.534 h 3.555"
       style="fill:#cfcecd;fill-opacity:1;fill-rule:nonzero;stroke:none;stroke-width:0.1"
       id="path82683" /><path
       d="m 583.72,251.4 v -3.542 h -3.555 v 3.542 h 3.555"
       style="fill:#cfcecd;fill-opacity:1;fill-rule:nonzero;stroke:none;stroke-width:0.1"
       id="path82685" /><path
       d="M 583.72,254.934 V 251.4 h -3.555 v 3.534 h 3.555"
       style="fill:#cfcecd;fill-opacity:1;fill-rule:nonzero;stroke:none;stroke-width:0.1"
       id="path82687" /><path
       d="m 583.72,258.477 v -3.543 h -3.555 v 3.543 h 3.555"
       style="fill:#cfcecd;fill-opacity:1;fill-rule:nonzero;stroke:none;stroke-width:0.1"
       id="path82689" /><path
       d="m 583.72,262.01 v -3.533 h -3.555 v 3.533 h 3.555"
       style="fill:#ffffff;fill-opacity:1;fill-rule:nonzero;stroke:none;stroke-width:0.1"
       id="path82691" /><path
       d="m 583.72,265.554 v -3.544 h -3.555 v 3.544 h 3.555"
       style="fill:#100f0d;fill-opacity:1;fill-rule:nonzero;stroke:none;stroke-width:0.1"
       id="path82693" /><path
       d="m 583.72,269.087 v -3.533 h -3.555 v 3.533 h 3.555"
       style="fill:#100f0d;fill-opacity:1;fill-rule:nonzero;stroke:none;stroke-width:0.1"
       id="path82695" /><path
       d="m 583.72,272.631 v -3.544 h -3.555 v 3.544 h 3.555"
       style="fill:#100f0d;fill-opacity:1;fill-rule:nonzero;stroke:none;stroke-width:0.1"
       id="path82697" /><path
       d="m 583.72,276.164 v -3.533 h -3.555 v 3.533 h 3.555"
       style="fill:#100f0d;fill-opacity:1;fill-rule:nonzero;stroke:none;stroke-width:0.1"
       id="path82699" /><path
       d="m 583.72,279.707 v -3.543 h -3.555 v 3.543 h 3.555"
       style="fill:#100f0d;fill-opacity:1;fill-rule:nonzero;stroke:none;stroke-width:0.1"
       id="path82701" /><path
       d="m 583.72,283.24 v -3.533 h -3.555 v 3.533 h 3.555"
       style="fill:#100f0d;fill-opacity:1;fill-rule:nonzero;stroke:none;stroke-width:0.1"
       id="path82703" /><path
       d="m 583.72,286.784 v -3.544 h -3.555 v 3.544 h 3.555"
       style="fill:#100f0d;fill-opacity:1;fill-rule:nonzero;stroke:none;stroke-width:0.1"
       id="path82705" /><path
       d="m 583.72,290.317 v -3.533 h -3.555 v 3.533 h 3.555"
       style="fill:#20262e;fill-opacity:1;fill-rule:nonzero;stroke:none;stroke-width:0.1"
       id="path82707" /><path
       d="m 583.72,293.861 v -3.544 h -3.555 v 3.544 h 3.555"
       style="fill:#20262e;fill-opacity:1;fill-rule:nonzero;stroke:none;stroke-width:0.1"
       id="path82709" /><path
       d="m 583.72,297.395 v -3.534 h -3.555 v 3.534 h 3.555"
       style="fill:#20262e;fill-opacity:1;fill-rule:nonzero;stroke:none;stroke-width:0.1"
       id="path82711" /><path
       d="m 583.72,300.938 v -3.543 h -3.555 v 3.543 h 3.555"
       style="fill:#20262e;fill-opacity:1;fill-rule:nonzero;stroke:none;stroke-width:0.1"
       id="path82713" /><path
       d="m 583.72,304.471 v -3.533 h -3.555 v 3.533 h 3.555"
       style="fill:#20262e;fill-opacity:1;fill-rule:nonzero;stroke:none;stroke-width:0.1"
       id="path82715" /><path
       d="m 583.72,308.014 v -3.543 h -3.555 v 3.543 h 3.555"
       style="fill:#20262e;fill-opacity:1;fill-rule:nonzero;stroke:none;stroke-width:0.1"
       id="path82717" /><path
       d="m 583.72,311.547 v -3.533 h -3.555 v 3.533 h 3.555"
       style="fill:#100f0d;fill-opacity:1;fill-rule:nonzero;stroke:none;stroke-width:0.1"
       id="path82719" /><path
       d="m 583.72,315.091 v -3.544 h -3.555 v 3.544 h 3.555"
       style="fill:#100f0d;fill-opacity:1;fill-rule:nonzero;stroke:none;stroke-width:0.1"
       id="path82721" /><path
       d="m 580.165,244.324 v -3.544 h -3.533 v 3.544 h 3.533"
       style="fill:#20262e;fill-opacity:1;fill-rule:nonzero;stroke:none;stroke-width:0.1"
       id="path82723" /><path
       d="m 580.165,247.858 v -3.534 h -3.533 v 3.534 h 3.533"
       style="fill:#100f0d;fill-opacity:1;fill-rule:nonzero;stroke:none;stroke-width:0.1"
       id="path82725" /><path
       d="m 580.165,251.4 v -3.542 h -3.533 v 3.542 h 3.533"
       style="fill:#cfcecd;fill-opacity:1;fill-rule:nonzero;stroke:none;stroke-width:0.1"
       id="path82727" /><path
       d="M 580.165,254.934 V 251.4 h -3.533 v 3.534 h 3.533"
       style="fill:#cfcecd;fill-opacity:1;fill-rule:nonzero;stroke:none;stroke-width:0.1"
       id="path82729" /><path
       d="m 580.165,258.477 v -3.543 h -3.533 v 3.543 h 3.533"
       style="fill:#cfcecd;fill-opacity:1;fill-rule:nonzero;stroke:none;stroke-width:0.1"
       id="path82731" /><path
       d="m 580.165,262.01 v -3.533 h -3.533 v 3.533 h 3.533"
       style="fill:#ffffff;fill-opacity:1;fill-rule:nonzero;stroke:none;stroke-width:0.1"
       id="path82733" /><path
       d="m 580.165,265.554 v -3.544 h -3.533 v 3.544 h 3.533"
       style="fill:#ffffff;fill-opacity:1;fill-rule:nonzero;stroke:none;stroke-width:0.1"
       id="path82735" /><path
       d="m 580.165,269.087 v -3.533 h -3.533 v 3.533 h 3.533"
       style="fill:#100f0d;fill-opacity:1;fill-rule:nonzero;stroke:none;stroke-width:0.1"
       id="path82737" /><path
       d="m 580.165,272.631 v -3.544 h -3.533 v 3.544 h 3.533"
       style="fill:#100f0d;fill-opacity:1;fill-rule:nonzero;stroke:none;stroke-width:0.1"
       id="path82739" /><path
       d="m 580.165,276.164 v -3.533 h -3.533 v 3.533 h 3.533"
       style="fill:#100f0d;fill-opacity:1;fill-rule:nonzero;stroke:none;stroke-width:0.1"
       id="path82741" /><path
       d="m 580.165,279.707 v -3.543 h -3.533 v 3.543 h 3.533"
       style="fill:#100f0d;fill-opacity:1;fill-rule:nonzero;stroke:none;stroke-width:0.1"
       id="path82743" /><path
       d="m 580.165,283.24 v -3.533 h -3.533 v 3.533 h 3.533"
       style="fill:#100f0d;fill-opacity:1;fill-rule:nonzero;stroke:none;stroke-width:0.1"
       id="path82745" /><path
       d="m 580.165,286.784 v -3.544 h -3.533 v 3.544 h 3.533"
       style="fill:#100f0d;fill-opacity:1;fill-rule:nonzero;stroke:none;stroke-width:0.1"
       id="path82747" /><path
       d="m 580.165,290.317 v -3.533 h -3.533 v 3.533 h 3.533"
       style="fill:#100f0d;fill-opacity:1;fill-rule:nonzero;stroke:none;stroke-width:0.1"
       id="path82749" /><path
       d="m 580.165,293.861 v -3.544 h -3.533 v 3.544 h 3.533"
       style="fill:#100f0d;fill-opacity:1;fill-rule:nonzero;stroke:none;stroke-width:0.1"
       id="path82751" /><path
       d="m 580.165,297.395 v -3.534 h -3.533 v 3.534 h 3.533"
       style="fill:#100f0d;fill-opacity:1;fill-rule:nonzero;stroke:none;stroke-width:0.1"
       id="path82753" /><path
       d="m 580.165,300.938 v -3.543 h -3.533 v 3.543 h 3.533"
       style="fill:#100f0d;fill-opacity:1;fill-rule:nonzero;stroke:none;stroke-width:0.1"
       id="path82755" /><path
       d="m 580.165,304.471 v -3.533 h -3.533 v 3.533 h 3.533"
       style="fill:#100f0d;fill-opacity:1;fill-rule:nonzero;stroke:none;stroke-width:0.1"
       id="path82757" /><path
       d="m 580.165,308.014 v -3.543 h -3.533 v 3.543 h 3.533"
       style="fill:#20262e;fill-opacity:1;fill-rule:nonzero;stroke:none;stroke-width:0.1"
       id="path82759" /><path
       d="m 580.165,311.547 v -3.533 h -3.533 v 3.533 h 3.533"
       style="fill:#20262e;fill-opacity:1;fill-rule:nonzero;stroke:none;stroke-width:0.1"
       id="path82761" /><path
       d="m 580.165,315.091 v -3.544 h -3.533 v 3.544 h 3.533"
       style="fill:#20262e;fill-opacity:1;fill-rule:nonzero;stroke:none;stroke-width:0.1"
       id="path82763" /><path
       d="m 580.165,318.624 v -3.533 h -3.533 v 3.533 h 3.533"
       style="fill:#100f0d;fill-opacity:1;fill-rule:nonzero;stroke:none;stroke-width:0.1"
       id="path82765" /><path
       d="M 576.632,244.324 V 240.78 H 573.1 v 3.544 h 3.532"
       style="fill:#20262e;fill-opacity:1;fill-rule:nonzero;stroke:none;stroke-width:0.1"
       id="path82767" /><path
       d="m 576.632,247.858 v -3.534 H 573.1 v 3.534 h 3.532"
       style="fill:#100f0d;fill-opacity:1;fill-rule:nonzero;stroke:none;stroke-width:0.1"
       id="path82769" /><path
       d="m 576.632,251.4 v -3.542 H 573.1 v 3.542 h 3.532"
       style="fill:#cfcecd;fill-opacity:1;fill-rule:nonzero;stroke:none;stroke-width:0.1"
       id="path82771" /><path
       d="M 576.632,254.934 V 251.4 H 573.1 v 3.534 h 3.532"
       style="fill:#cfcecd;fill-opacity:1;fill-rule:nonzero;stroke:none;stroke-width:0.1"
       id="path82773" /><path
       d="m 576.632,258.477 v -3.543 H 573.1 v 3.543 h 3.532"
       style="fill:#ffffff;fill-opacity:1;fill-rule:nonzero;stroke:none;stroke-width:0.1"
       id="path82775" /><path
       d="m 576.632,262.01 v -3.533 H 573.1 v 3.533 h 3.532"
       style="fill:#ffffff;fill-opacity:1;fill-rule:nonzero;stroke:none;stroke-width:0.1"
       id="path82777" /><path
       d="M 576.632,265.554 V 262.01 H 573.1 v 3.544 h 3.532"
       style="fill:#ffffff;fill-opacity:1;fill-rule:nonzero;stroke:none;stroke-width:0.1"
       id="path82779" /><path
       d="m 576.632,269.087 v -3.533 H 573.1 v 3.533 h 3.532"
       style="fill:#ffffff;fill-opacity:1;fill-rule:nonzero;stroke:none;stroke-width:0.1"
       id="path82781" /><path
       d="m 576.632,272.631 v -3.544 H 573.1 v 3.544 h 3.532"
       style="fill:#ffffff;fill-opacity:1;fill-rule:nonzero;stroke:none;stroke-width:0.1"
       id="path82783" /><path
       d="m 576.632,276.164 v -3.533 H 573.1 v 3.533 h 3.532"
       style="fill:#100f0d;fill-opacity:1;fill-rule:nonzero;stroke:none;stroke-width:0.1"
       id="path82785" /><path
       d="m 576.632,279.707 v -3.543 H 573.1 v 3.543 h 3.532"
       style="fill:#100f0d;fill-opacity:1;fill-rule:nonzero;stroke:none;stroke-width:0.1"
       id="path82787" /><path
       d="m 576.632,283.24 v -3.533 H 573.1 v 3.533 h 3.532"
       style="fill:#100f0d;fill-opacity:1;fill-rule:nonzero;stroke:none;stroke-width:0.1"
       id="path82789" /><path
       d="M 576.632,286.784 V 283.24 H 573.1 v 3.544 h 3.532"
       style="fill:#100f0d;fill-opacity:1;fill-rule:nonzero;stroke:none;stroke-width:0.1"
       id="path82791" /><path
       d="m 576.632,290.317 v -3.533 H 573.1 v 3.533 h 3.532"
       style="fill:#100f0d;fill-opacity:1;fill-rule:nonzero;stroke:none;stroke-width:0.1"
       id="path82793" /><path
       d="m 576.632,293.861 v -3.544 H 573.1 v 3.544 h 3.532"
       style="fill:#100f0d;fill-opacity:1;fill-rule:nonzero;stroke:none;stroke-width:0.1"
       id="path82795" /><path
       d="m 576.632,297.395 v -3.534 H 573.1 v 3.534 h 3.532"
       style="fill:#ffffff;fill-opacity:1;fill-rule:nonzero;stroke:none;stroke-width:0.1"
       id="path82797" /><path
       d="m 576.632,300.938 v -3.543 H 573.1 v 3.543 h 3.532"
       style="fill:#f6f347;fill-opacity:1;fill-rule:nonzero;stroke:none;stroke-width:0.1"
       id="path82799" /><path
       d="m 576.632,304.471 v -3.533 H 573.1 v 3.533 h 3.532"
       style="fill:#100f0d;fill-opacity:1;fill-rule:nonzero;stroke:none;stroke-width:0.1"
       id="path82801" /><path
       d="m 576.632,308.014 v -3.543 H 573.1 v 3.543 h 3.532"
       style="fill:#20262e;fill-opacity:1;fill-rule:nonzero;stroke:none;stroke-width:0.1"
       id="path82803" /><path
       d="m 576.632,311.547 v -3.533 H 573.1 v 3.533 h 3.532"
       style="fill:#20262e;fill-opacity:1;fill-rule:nonzero;stroke:none;stroke-width:0.1"
       id="path82805" /><path
       d="m 576.632,315.091 v -3.544 H 573.1 v 3.544 h 3.532"
       style="fill:#100f0d;fill-opacity:1;fill-rule:nonzero;stroke:none;stroke-width:0.1"
       id="path82807" /><path
       d="m 576.632,318.624 v -3.533 H 573.1 v 3.533 h 3.532"
       style="fill:#100f0d;fill-opacity:1;fill-rule:nonzero;stroke:none;stroke-width:0.1"
       id="path82809" /><path
       d="m 576.632,322.168 v -3.544 H 573.1 v 3.544 h 3.532"
       style="fill:#100f0d;fill-opacity:1;fill-rule:nonzero;stroke:none;stroke-width:0.1"
       id="path82811" /><path
       d="m 573.1,244.324 v -3.544 h -3.544 v 3.544 h 3.544"
       style="fill:#100f0d;fill-opacity:1;fill-rule:nonzero;stroke:none;stroke-width:0.1"
       id="path82813" /><path
       d="m 573.1,247.858 v -3.534 h -3.544 v 3.534 h 3.544"
       style="fill:#cfcecd;fill-opacity:1;fill-rule:nonzero;stroke:none;stroke-width:0.1"
       id="path82815" /><path
       d="m 573.1,251.4 v -3.542 h -3.544 v 3.542 h 3.544"
       style="fill:#cfcecd;fill-opacity:1;fill-rule:nonzero;stroke:none;stroke-width:0.1"
       id="path82817" /><path
       d="M 573.1,254.934 V 251.4 h -3.544 v 3.534 h 3.544"
       style="fill:#cfcecd;fill-opacity:1;fill-rule:nonzero;stroke:none;stroke-width:0.1"
       id="path82819" /><path
       d="m 573.1,258.477 v -3.543 h -3.544 v 3.543 h 3.544"
       style="fill:#ffffff;fill-opacity:1;fill-rule:nonzero;stroke:none;stroke-width:0.1"
       id="path82821" /><path
       d="m 573.1,262.01 v -3.533 h -3.544 v 3.533 h 3.544"
       style="fill:#ffffff;fill-opacity:1;fill-rule:nonzero;stroke:none;stroke-width:0.1"
       id="path82823" /><path
       d="m 573.1,265.554 v -3.544 h -3.544 v 3.544 h 3.544"
       style="fill:#ffffff;fill-opacity:1;fill-rule:nonzero;stroke:none;stroke-width:0.1"
       id="path82825" /><path
       d="m 573.1,269.087 v -3.533 h -3.544 v 3.533 h 3.544"
       style="fill:#ffffff;fill-opacity:1;fill-rule:nonzero;stroke:none;stroke-width:0.1"
       id="path82827" /><path
       d="m 573.1,272.631 v -3.544 h -3.544 v 3.544 h 3.544"
       style="fill:#ffffff;fill-opacity:1;fill-rule:nonzero;stroke:none;stroke-width:0.1"
       id="path82829" /><path
       d="m 573.1,276.164 v -3.533 h -3.544 v 3.533 h 3.544"
       style="fill:#ffffff;fill-opacity:1;fill-rule:nonzero;stroke:none;stroke-width:0.1"
       id="path82831" /><path
       d="m 573.1,279.707 v -3.543 h -3.544 v 3.543 h 3.544"
       style="fill:#ffffff;fill-opacity:1;fill-rule:nonzero;stroke:none;stroke-width:0.1"
       id="path82833" /><path
       d="m 573.1,283.24 v -3.533 h -3.544 v 3.533 h 3.544"
       style="fill:#ffffff;fill-opacity:1;fill-rule:nonzero;stroke:none;stroke-width:0.1"
       id="path82835" /><path
       d="m 573.1,286.784 v -3.544 h -3.544 v 3.544 h 3.544"
       style="fill:#ffffff;fill-opacity:1;fill-rule:nonzero;stroke:none;stroke-width:0.1"
       id="path82837" /><path
       d="m 573.1,290.317 v -3.533 h -3.544 v 3.533 h 3.544"
       style="fill:#ffffff;fill-opacity:1;fill-rule:nonzero;stroke:none;stroke-width:0.1"
       id="path82839" /><path
       d="m 573.1,293.861 v -3.544 h -3.544 v 3.544 h 3.544"
       style="fill:#ffffff;fill-opacity:1;fill-rule:nonzero;stroke:none;stroke-width:0.1"
       id="path82841" /><path
       d="m 573.1,297.395 v -3.534 h -3.544 v 3.534 h 3.544"
       style="fill:#f6f347;fill-opacity:1;fill-rule:nonzero;stroke:none;stroke-width:0.1"
       id="path82843" /><path
       d="m 573.1,300.938 v -3.543 h -3.544 v 3.543 h 3.544"
       style="fill:#f6f347;fill-opacity:1;fill-rule:nonzero;stroke:none;stroke-width:0.1"
       id="path82845" /><path
       d="m 573.1,304.471 v -3.533 h -3.544 v 3.533 h 3.544"
       style="fill:#100f0d;fill-opacity:1;fill-rule:nonzero;stroke:none;stroke-width:0.1"
       id="path82847" /><path
       d="m 573.1,308.014 v -3.543 h -3.544 v 3.543 h 3.544"
       style="fill:#100f0d;fill-opacity:1;fill-rule:nonzero;stroke:none;stroke-width:0.1"
       id="path82849" /><path
       d="m 573.1,311.547 v -3.533 h -3.544 v 3.533 h 3.544"
       style="fill:#100f0d;fill-opacity:1;fill-rule:nonzero;stroke:none;stroke-width:0.1"
       id="path82851" /><path
       d="m 573.1,315.091 v -3.544 h -3.544 v 3.544 h 3.544"
       style="fill:#f6f347;fill-opacity:1;fill-rule:nonzero;stroke:none;stroke-width:0.1"
       id="path82853" /><path
       d="m 573.1,318.624 v -3.533 h -3.544 v 3.533 h 3.544"
       style="fill:#f6f347;fill-opacity:1;fill-rule:nonzero;stroke:none;stroke-width:0.1"
       id="path82855" /><path
       d="m 573.1,322.168 v -3.544 h -3.544 v 3.544 h 3.544"
       style="fill:#100f0d;fill-opacity:1;fill-rule:nonzero;stroke:none;stroke-width:0.1"
       id="path82857" /><path
       d="m 569.556,244.324 v -3.544 h -3.534 v 3.544 h 3.534"
       style="fill:#20262e;fill-opacity:1;fill-rule:nonzero;stroke:none;stroke-width:0.1"
       id="path82859" /><path
       d="m 569.556,247.858 v -3.534 h -3.534 v 3.534 h 3.534"
       style="fill:#cfcecd;fill-opacity:1;fill-rule:nonzero;stroke:none;stroke-width:0.1"
       id="path82861" /><path
       d="m 569.556,251.4 v -3.542 h -3.534 v 3.542 h 3.534"
       style="fill:#cfcecd;fill-opacity:1;fill-rule:nonzero;stroke:none;stroke-width:0.1"
       id="path82863" /><path
       d="M 569.556,254.934 V 251.4 h -3.534 v 3.534 h 3.534"
       style="fill:#cfcecd;fill-opacity:1;fill-rule:nonzero;stroke:none;stroke-width:0.1"
       id="path82865" /><path
       d="m 569.556,258.477 v -3.543 h -3.534 v 3.543 h 3.534"
       style="fill:#cfcecd;fill-opacity:1;fill-rule:nonzero;stroke:none;stroke-width:0.1"
       id="path82867" /><path
       d="m 569.556,262.01 v -3.533 h -3.534 v 3.533 h 3.534"
       style="fill:#ffffff;fill-opacity:1;fill-rule:nonzero;stroke:none;stroke-width:0.1"
       id="path82869" /><path
       d="m 569.556,265.554 v -3.544 h -3.534 v 3.544 h 3.534"
       style="fill:#ffffff;fill-opacity:1;fill-rule:nonzero;stroke:none;stroke-width:0.1"
       id="path82871" /><path
       d="m 569.556,269.087 v -3.533 h -3.534 v 3.533 h 3.534"
       style="fill:#ffffff;fill-opacity:1;fill-rule:nonzero;stroke:none;stroke-width:0.1"
       id="path82873" /><path
       d="m 569.556,272.631 v -3.544 h -3.534 v 3.544 h 3.534"
       style="fill:#ffffff;fill-opacity:1;fill-rule:nonzero;stroke:none;stroke-width:0.1"
       id="path82875" /><path
       d="m 569.556,276.164 v -3.533 h -3.534 v 3.533 h 3.534"
       style="fill:#ffffff;fill-opacity:1;fill-rule:nonzero;stroke:none;stroke-width:0.1"
       id="path82877" /><path
       d="m 569.556,279.707 v -3.543 h -3.534 v 3.543 h 3.534"
       style="fill:#ffffff;fill-opacity:1;fill-rule:nonzero;stroke:none;stroke-width:0.1"
       id="path82879" /><path
       d="m 569.556,283.24 v -3.533 h -3.534 v 3.533 h 3.534"
       style="fill:#ffffff;fill-opacity:1;fill-rule:nonzero;stroke:none;stroke-width:0.1"
       id="path82881" /><path
       d="m 569.556,286.784 v -3.544 h -3.534 v 3.544 h 3.534"
       style="fill:#ffffff;fill-opacity:1;fill-rule:nonzero;stroke:none;stroke-width:0.1"
       id="path82883" /><path
       d="m 569.556,290.317 v -3.533 h -3.534 v 3.533 h 3.534"
       style="fill:#ffffff;fill-opacity:1;fill-rule:nonzero;stroke:none;stroke-width:0.1"
       id="path82885" /><path
       d="m 569.556,293.861 v -3.544 h -3.534 v 3.544 h 3.534"
       style="fill:#ffffff;fill-opacity:1;fill-rule:nonzero;stroke:none;stroke-width:0.1"
       id="path82887" /><path
       d="m 569.556,297.395 v -3.534 h -3.534 v 3.534 h 3.534"
       style="fill:#ffffff;fill-opacity:1;fill-rule:nonzero;stroke:none;stroke-width:0.1"
       id="path82889" /><path
       d="m 569.556,300.938 v -3.543 h -3.534 v 3.543 h 3.534"
       style="fill:#f6f347;fill-opacity:1;fill-rule:nonzero;stroke:none;stroke-width:0.1"
       id="path82891" /><path
       d="m 569.556,304.471 v -3.533 h -3.534 v 3.533 h 3.534"
       style="fill:#f6f347;fill-opacity:1;fill-rule:nonzero;stroke:none;stroke-width:0.1"
       id="path82893" /><path
       d="m 569.556,308.014 v -3.543 h -3.534 v 3.543 h 3.534"
       style="fill:#100f0d;fill-opacity:1;fill-rule:nonzero;stroke:none;stroke-width:0.1"
       id="path82895" /><path
       d="m 569.556,311.547 v -3.533 h -3.534 v 3.533 h 3.534"
       style="fill:#100f0d;fill-opacity:1;fill-rule:nonzero;stroke:none;stroke-width:0.1"
       id="path82897" /><path
       d="m 569.556,315.091 v -3.544 h -3.534 v 3.544 h 3.534"
       style="fill:#f6f347;fill-opacity:1;fill-rule:nonzero;stroke:none;stroke-width:0.1"
       id="path82899" /><path
       d="m 569.556,318.624 v -3.533 h -3.534 v 3.533 h 3.534"
       style="fill:#ffffff;fill-opacity:1;fill-rule:nonzero;stroke:none;stroke-width:0.1"
       id="path82901" /><path
       d="m 569.556,322.168 v -3.544 h -3.534 v 3.544 h 3.534"
       style="fill:#100f0d;fill-opacity:1;fill-rule:nonzero;stroke:none;stroke-width:0.1"
       id="path82903" /><path
       d="m 566.022,244.324 v -3.544 h -3.533 v 3.544 h 3.533"
       style="fill:#20262e;fill-opacity:1;fill-rule:nonzero;stroke:none;stroke-width:0.1"
       id="path82905" /><path
       d="m 566.022,247.858 v -3.534 h -3.533 v 3.534 h 3.533"
       style="fill:#cfcecd;fill-opacity:1;fill-rule:nonzero;stroke:none;stroke-width:0.1"
       id="path82907" /><path
       d="m 566.022,251.4 v -3.542 h -3.533 v 3.542 h 3.533"
       style="fill:#100f0d;fill-opacity:1;fill-rule:nonzero;stroke:none;stroke-width:0.1"
       id="path82909" /><path
       d="M 566.022,254.934 V 251.4 h -3.533 v 3.534 h 3.533"
       style="fill:#100f0d;fill-opacity:1;fill-rule:nonzero;stroke:none;stroke-width:0.1"
       id="path82911" /><path
       d="m 566.022,258.477 v -3.543 h -3.533 v 3.543 h 3.533"
       style="fill:#cfcecd;fill-opacity:1;fill-rule:nonzero;stroke:none;stroke-width:0.1"
       id="path82913" /><path
       d="m 566.022,262.01 v -3.533 h -3.533 v 3.533 h 3.533"
       style="fill:#cfcecd;fill-opacity:1;fill-rule:nonzero;stroke:none;stroke-width:0.1"
       id="path82915" /><path
       d="m 566.022,265.554 v -3.544 h -3.533 v 3.544 h 3.533"
       style="fill:#cfcecd;fill-opacity:1;fill-rule:nonzero;stroke:none;stroke-width:0.1"
       id="path82917" /><path
       d="m 566.022,269.087 v -3.533 h -3.533 v 3.533 h 3.533"
       style="fill:#ffffff;fill-opacity:1;fill-rule:nonzero;stroke:none;stroke-width:0.1"
       id="path82919" /><path
       d="m 566.022,272.631 v -3.544 h -3.533 v 3.544 h 3.533"
       style="fill:#ffffff;fill-opacity:1;fill-rule:nonzero;stroke:none;stroke-width:0.1"
       id="path82921" /><path
       d="m 566.022,276.164 v -3.533 h -3.533 v 3.533 h 3.533"
       style="fill:#ffffff;fill-opacity:1;fill-rule:nonzero;stroke:none;stroke-width:0.1"
       id="path82923" /><path
       d="m 566.022,279.707 v -3.543 h -3.533 v 3.543 h 3.533"
       style="fill:#ffffff;fill-opacity:1;fill-rule:nonzero;stroke:none;stroke-width:0.1"
       id="path82925" /><path
       d="m 566.022,283.24 v -3.533 h -3.533 v 3.533 h 3.533"
       style="fill:#ffffff;fill-opacity:1;fill-rule:nonzero;stroke:none;stroke-width:0.1"
       id="path82927" /><path
       d="m 566.022,286.784 v -3.544 h -3.533 v 3.544 h 3.533"
       style="fill:#ffffff;fill-opacity:1;fill-rule:nonzero;stroke:none;stroke-width:0.1"
       id="path82929" /><path
       d="m 566.022,290.317 v -3.533 h -3.533 v 3.533 h 3.533"
       style="fill:#ffffff;fill-opacity:1;fill-rule:nonzero;stroke:none;stroke-width:0.1"
       id="path82931" /><path
       d="m 566.022,293.861 v -3.544 h -3.533 v 3.544 h 3.533"
       style="fill:#ffffff;fill-opacity:1;fill-rule:nonzero;stroke:none;stroke-width:0.1"
       id="path82933" /><path
       d="m 566.022,297.395 v -3.534 h -3.533 v 3.534 h 3.533"
       style="fill:#ffffff;fill-opacity:1;fill-rule:nonzero;stroke:none;stroke-width:0.1"
       id="path82935" /><path
       d="m 566.022,300.938 v -3.543 h -3.533 v 3.543 h 3.533"
       style="fill:#f6f347;fill-opacity:1;fill-rule:nonzero;stroke:none;stroke-width:0.1"
       id="path82937" /><path
       d="m 566.022,304.471 v -3.533 h -3.533 v 3.533 h 3.533"
       style="fill:#f6f347;fill-opacity:1;fill-rule:nonzero;stroke:none;stroke-width:0.1"
       id="path82939" /><path
       d="m 566.022,308.014 v -3.543 h -3.533 v 3.543 h 3.533"
       style="fill:#100f0d;fill-opacity:1;fill-rule:nonzero;stroke:none;stroke-width:0.1"
       id="path82941" /><path
       d="m 566.022,311.547 v -3.533 h -3.533 v 3.533 h 3.533"
       style="fill:#100f0d;fill-opacity:1;fill-rule:nonzero;stroke:none;stroke-width:0.1"
       id="path82943" /><path
       d="m 566.022,315.091 v -3.544 h -3.533 v 3.544 h 3.533"
       style="fill:#100f0d;fill-opacity:1;fill-rule:nonzero;stroke:none;stroke-width:0.1"
       id="path82945" /><path
       d="m 566.022,318.624 v -3.533 h -3.533 v 3.533 h 3.533"
       style="fill:#100f0d;fill-opacity:1;fill-rule:nonzero;stroke:none;stroke-width:0.1"
       id="path82947" /><path
       d="m 566.022,322.168 v -3.544 h -3.533 v 3.544 h 3.533"
       style="fill:#100f0d;fill-opacity:1;fill-rule:nonzero;stroke:none;stroke-width:0.1"
       id="path82949" /><path
       d="m 562.489,244.324 v -3.544 h -3.544 v 3.544 h 3.544"
       style="fill:#20262e;fill-opacity:1;fill-rule:nonzero;stroke:none;stroke-width:0.1"
       id="path82951" /><path
       d="m 562.489,247.858 v -3.534 h -3.544 v 3.534 h 3.544"
       style="fill:#100f0d;fill-opacity:1;fill-rule:nonzero;stroke:none;stroke-width:0.1"
       id="path82953" /><path
       d="m 562.489,258.477 v -3.543 h -3.544 v 3.543 h 3.544"
       style="fill:#100f0d;fill-opacity:1;fill-rule:nonzero;stroke:none;stroke-width:0.1"
       id="path82955" /><path
       d="m 562.489,262.01 v -3.533 h -3.544 v 3.533 h 3.544"
       style="fill:#100f0d;fill-opacity:1;fill-rule:nonzero;stroke:none;stroke-width:0.1"
       id="path82957" /><path
       d="m 562.489,265.554 v -3.544 h -3.544 v 3.544 h 3.544"
       style="fill:#cfcecd;fill-opacity:1;fill-rule:nonzero;stroke:none;stroke-width:0.1"
       id="path82959" /><path
       d="m 562.489,269.087 v -3.533 h -3.544 v 3.533 h 3.544"
       style="fill:#cfcecd;fill-opacity:1;fill-rule:nonzero;stroke:none;stroke-width:0.1"
       id="path82961" /><path
       d="m 562.489,272.631 v -3.544 h -3.544 v 3.544 h 3.544"
       style="fill:#ffffff;fill-opacity:1;fill-rule:nonzero;stroke:none;stroke-width:0.1"
       id="path82963" /><path
       d="m 562.489,276.164 v -3.533 h -3.544 v 3.533 h 3.544"
       style="fill:#ffffff;fill-opacity:1;fill-rule:nonzero;stroke:none;stroke-width:0.1"
       id="path82965" /><path
       d="m 562.489,279.707 v -3.543 h -3.544 v 3.543 h 3.544"
       style="fill:#ffffff;fill-opacity:1;fill-rule:nonzero;stroke:none;stroke-width:0.1"
       id="path82967" /><path
       d="m 562.489,283.24 v -3.533 h -3.544 v 3.533 h 3.544"
       style="fill:#ffffff;fill-opacity:1;fill-rule:nonzero;stroke:none;stroke-width:0.1"
       id="path82969" /><path
       d="m 562.489,286.784 v -3.544 h -3.544 v 3.544 h 3.544"
       style="fill:#ffffff;fill-opacity:1;fill-rule:nonzero;stroke:none;stroke-width:0.1"
       id="path82971" /><path
       d="m 562.489,290.317 v -3.533 h -3.544 v 3.533 h 3.544"
       style="fill:#ffffff;fill-opacity:1;fill-rule:nonzero;stroke:none;stroke-width:0.1"
       id="path82973" /><path
       d="m 562.489,293.861 v -3.544 h -3.544 v 3.544 h 3.544"
       style="fill:#ffffff;fill-opacity:1;fill-rule:nonzero;stroke:none;stroke-width:0.1"
       id="path82975" /><path
       d="m 562.489,297.395 v -3.534 h -3.544 v 3.534 h 3.544"
       style="fill:#f6f347;fill-opacity:1;fill-rule:nonzero;stroke:none;stroke-width:0.1"
       id="path82977" /><path
       d="m 562.489,300.938 v -3.543 h -3.544 v 3.543 h 3.544"
       style="fill:#f6f347;fill-opacity:1;fill-rule:nonzero;stroke:none;stroke-width:0.1"
       id="path82979" /><path
       d="m 562.489,304.471 v -3.533 h -3.544 v 3.533 h 3.544"
       style="fill:#100f0d;fill-opacity:1;fill-rule:nonzero;stroke:none;stroke-width:0.1"
       id="path82981" /><path
       d="m 562.489,308.014 v -3.543 h -3.544 v 3.543 h 3.544"
       style="fill:#100f0d;fill-opacity:1;fill-rule:nonzero;stroke:none;stroke-width:0.1"
       id="path82983" /><path
       d="m 562.489,311.547 v -3.533 h -3.544 v 3.533 h 3.544"
       style="fill:#100f0d;fill-opacity:1;fill-rule:nonzero;stroke:none;stroke-width:0.1"
       id="path82985" /><path
       d="m 562.489,315.091 v -3.544 h -3.544 v 3.544 h 3.544"
       style="fill:#100f0d;fill-opacity:1;fill-rule:nonzero;stroke:none;stroke-width:0.1"
       id="path82987" /><path
       d="m 562.489,318.624 v -3.533 h -3.544 v 3.533 h 3.544"
       style="fill:#100f0d;fill-opacity:1;fill-rule:nonzero;stroke:none;stroke-width:0.1"
       id="path82989" /><path
       d="m 562.489,322.168 v -3.544 h -3.544 v 3.544 h 3.544"
       style="fill:#100f0d;fill-opacity:1;fill-rule:nonzero;stroke:none;stroke-width:0.1"
       id="path82991" /><path
       d="m 558.945,244.324 v -3.544 h -3.543 v 3.544 h 3.543"
       style="fill:#100f0d;fill-opacity:1;fill-rule:nonzero;stroke:none;stroke-width:0.1"
       id="path82993" /><path
       d="m 558.945,247.858 v -3.534 h -3.543 v 3.534 h 3.543"
       style="fill:#100f0d;fill-opacity:1;fill-rule:nonzero;stroke:none;stroke-width:0.1"
       id="path82995" /><path
       d="m 558.945,265.554 v -3.544 h -3.543 v 3.544 h 3.543"
       style="fill:#100f0d;fill-opacity:1;fill-rule:nonzero;stroke:none;stroke-width:0.1"
       id="path82997" /><path
       d="m 558.945,269.087 v -3.533 h -3.543 v 3.533 h 3.543"
       style="fill:#100f0d;fill-opacity:1;fill-rule:nonzero;stroke:none;stroke-width:0.1"
       id="path82999" /><path
       d="m 558.945,272.631 v -3.544 h -3.543 v 3.544 h 3.543"
       style="fill:#20262e;fill-opacity:1;fill-rule:nonzero;stroke:none;stroke-width:0.1"
       id="path83001" /><path
       d="m 558.945,276.164 v -3.533 h -3.543 v 3.533 h 3.543"
       style="fill:#20262e;fill-opacity:1;fill-rule:nonzero;stroke:none;stroke-width:0.1"
       id="path83003" /><path
       d="m 558.945,279.707 v -3.543 h -3.543 v 3.543 h 3.543"
       style="fill:#20262e;fill-opacity:1;fill-rule:nonzero;stroke:none;stroke-width:0.1"
       id="path83005" /><path
       d="m 558.945,283.24 v -3.533 h -3.543 v 3.533 h 3.543"
       style="fill:#20262e;fill-opacity:1;fill-rule:nonzero;stroke:none;stroke-width:0.1"
       id="path83007" /><path
       d="m 558.945,286.784 v -3.544 h -3.543 v 3.544 h 3.543"
       style="fill:#100f0d;fill-opacity:1;fill-rule:nonzero;stroke:none;stroke-width:0.1"
       id="path83009" /><path
       d="m 558.945,290.317 v -3.533 h -3.543 v 3.533 h 3.543"
       style="fill:#100f0d;fill-opacity:1;fill-rule:nonzero;stroke:none;stroke-width:0.1"
       id="path83011" /><path
       d="m 558.945,293.861 v -3.544 h -3.543 v 3.544 h 3.543"
       style="fill:#100f0d;fill-opacity:1;fill-rule:nonzero;stroke:none;stroke-width:0.1"
       id="path83013" /><path
       d="m 558.945,297.395 v -3.534 h -3.543 v 3.534 h 3.543"
       style="fill:#100f0d;fill-opacity:1;fill-rule:nonzero;stroke:none;stroke-width:0.1"
       id="path83015" /><path
       d="m 558.945,300.938 v -3.543 h -3.543 v 3.543 h 3.543"
       style="fill:#100f0d;fill-opacity:1;fill-rule:nonzero;stroke:none;stroke-width:0.1"
       id="path83017" /><path
       d="m 558.945,311.547 v -3.533 h -3.543 v 3.533 h 3.543"
       style="fill:#100f0d;fill-opacity:1;fill-rule:nonzero;stroke:none;stroke-width:0.1"
       id="path83019" /><path
       d="m 558.945,315.091 v -3.544 h -3.543 v 3.544 h 3.543"
       style="fill:#100f0d;fill-opacity:1;fill-rule:nonzero;stroke:none;stroke-width:0.1"
       id="path83021" /><path
       d="m 558.945,318.624 v -3.533 h -3.543 v 3.533 h 3.543"
       style="fill:#100f0d;fill-opacity:1;fill-rule:nonzero;stroke:none;stroke-width:0.1"
       id="path83023" /><path
       d="m 555.402,265.554 v -3.544 h -3.533 v 3.544 h 3.533"
       style="fill:#100f0d;fill-opacity:1;fill-rule:nonzero;stroke:none;stroke-width:0.1"
       id="path83025" /><path
       d="m 555.402,269.087 v -3.533 h -3.533 v 3.533 h 3.533"
       style="fill:#100f0d;fill-opacity:1;fill-rule:nonzero;stroke:none;stroke-width:0.1"
       id="path83027" /><path
       d="m 555.402,272.631 v -3.544 h -3.533 v 3.544 h 3.533"
       style="fill:#20262e;fill-opacity:1;fill-rule:nonzero;stroke:none;stroke-width:0.1"
       id="path83029" /><path
       d="m 555.402,276.164 v -3.533 h -3.533 v 3.533 h 3.533"
       style="fill:#20262e;fill-opacity:1;fill-rule:nonzero;stroke:none;stroke-width:0.1"
       id="path83031" /><path
       d="m 555.402,279.707 v -3.543 h -3.533 v 3.543 h 3.533"
       style="fill:#100f0d;fill-opacity:1;fill-rule:nonzero;stroke:none;stroke-width:0.1"
       id="path83033" /><path
       d="m 555.402,283.24 v -3.533 h -3.533 v 3.533 h 3.533"
       style="fill:#100f0d;fill-opacity:1;fill-rule:nonzero;stroke:none;stroke-width:0.1"
       id="path83035" /><path
       d="m 555.402,286.784 v -3.544 h -3.533 v 3.544 h 3.533"
       style="fill:#100f0d;fill-opacity:1;fill-rule:nonzero;stroke:none;stroke-width:0.1"
       id="path83037" /><path
       d="m 555.402,311.547 v -3.533 h -3.533 v 3.533 h 3.533"
       style="fill:#100f0d;fill-opacity:1;fill-rule:nonzero;stroke:none;stroke-width:0.1"
       id="path83039" /><path
       d="m 555.402,315.091 v -3.544 h -3.533 v 3.544 h 3.533"
       style="fill:#100f0d;fill-opacity:1;fill-rule:nonzero;stroke:none;stroke-width:0.1"
       id="path83041" /><path
       d="m 551.869,265.554 v -3.544 h -3.533 v 3.544 h 3.533"
       style="fill:#100f0d;fill-opacity:1;fill-rule:nonzero;stroke:none;stroke-width:0.1"
       id="path83043" /><path
       d="m 551.869,269.087 v -3.533 h -3.533 v 3.533 h 3.533"
       style="fill:#100f0d;fill-opacity:1;fill-rule:nonzero;stroke:none;stroke-width:0.1"
       id="path83045" /><path
       d="m 551.869,272.631 v -3.544 h -3.533 v 3.544 h 3.533"
       style="fill:#100f0d;fill-opacity:1;fill-rule:nonzero;stroke:none;stroke-width:0.1"
       id="path83047" /><path
       d="m 551.869,276.164 v -3.533 h -3.533 v 3.533 h 3.533"
       style="fill:#100f0d;fill-opacity:1;fill-rule:nonzero;stroke:none;stroke-width:0.1"
       id="path83049" /><path
       d="m 551.869,311.547 v -3.533 h -3.533 v 3.533 h 3.533"
       style="fill:#100f0d;fill-opacity:1;fill-rule:nonzero;stroke:none;stroke-width:0.1"
       id="path83051" /></g></svg>