<?xml version="1.0" encoding="UTF-8" standalone="no"?>
<svg
   xmlns:dc="http://purl.org/dc/elements/1.1/"
   xmlns:cc="http://creativecommons.org/ns#"
   xmlns:rdf="http://www.w3.org/1999/02/22-rdf-syntax-ns#"
   xmlns:svg="http://www.w3.org/2000/svg"
   xmlns="http://www.w3.org/2000/svg"
   xmlns:sodipodi="http://sodipodi.sourceforge.net/DTD/sodipodi-0.dtd"
   xmlns:inkscape="http://www.inkscape.org/namespaces/inkscape"
   viewBox="0 0 188.97333 188.97333"
   height="188.97333"
   width="188.97333"
   xml:space="preserve"
   id="svg160783"
   version="1.1"
   sodipodi:docname="swan-black-on-white.svg"
   inkscape:version="0.92.3 (2405546, 2018-03-11)"><sodipodi:namedview
     pagecolor="#ffffff"
     bordercolor="#666666"
     borderopacity="1"
     objecttolerance="10"
     gridtolerance="10"
     guidetolerance="10"
     inkscape:pageopacity="0"
     inkscape:pageshadow="2"
     inkscape:window-width="1720"
     inkscape:window-height="1385"
     id="namedview25"
     showgrid="false"
     inkscape:zoom="6.2495592"
     inkscape:cx="39.715865"
     inkscape:cy="44.519467"
     inkscape:window-x="1720"
     inkscape:window-y="27"
     inkscape:window-maximized="0"
     inkscape:current-layer="svg160783" /><metadata
     id="metadata160789"><rdf:RDF><cc:Work
         rdf:about=""><dc:format>image/svg+xml</dc:format><dc:type
           rdf:resource="http://purl.org/dc/dcmitype/StillImage" /><dc:title /></cc:Work></rdf:RDF></metadata><defs
     id="defs160787"><clipPath
       id="clipPath160901"
       clipPathUnits="userSpaceOnUse"><g
         id="use160903"><path
           d="m 73.6906,31.325 v 9.202 h 0.9985 v -8.1161 h 3.716 V 31.325 h -4.7145"
           style="fill:#ffffff;fill-opacity:1;fill-rule:nonzero;stroke:none;stroke-width:0.1"
           id="path160905" /></g></clipPath></defs><g
     transform="matrix(1.3333333,0,0,-1.3333333,0,188.97333)"
     id="g160791"><path
   d="M 41.0781,38.3586 C 55.3031,52.1074 78.025,31.4266 100.654,49.498 79.8039,24.718 59.4383,47.4441 41.0781,38.3586"
   style="fill:#ffffff;fill-opacity:1;fill-rule:nonzero;stroke:none;stroke-width:0.1"
   id="path160797" /><path
   d="m 51.6586,56.6133 c -1.1746,2.9765 -1.5816,8.9695 2.6801,18.1965 5.3859,11.6621 7.7078,18.8542 4.3363,20.2242 -2.0258,0.823 -3.4027,-1.785 -5.2156,-0.931 -1.4727,0.693 0.5488,7.647 5.9324,6.636 2.3129,-0.434 3.5352,-2.439 3.748,-6.319 0.3946,-7.182 -5.423,-16.1262 -6.3355,-25.352 -0.4082,-4.1223 2.2426,-7.6547 7.0723,-1.0899 2.5789,3.5055 6.2035,9.0258 12.9461,11.6649 -2.5579,-2.502 -3.7254,-7.4145 -3.7254,-7.4145 0,0 3.9476,4.5035 9.0394,4.8528 -3.3406,-2.4684 -4.514,-6.8122 -4.514,-6.8122 0,0 3.6211,2.4735 8.7511,2.0907 -5.3035,-2.4434 -9.9633,-8.3352 -9.9633,-8.3352 0,0 6.0657,2.9543 11.1946,2.2164 0,0 -4.1996,-1.1332 -6.8785,-6.4648 0,0 2.2328,0.8121 6.289,0.4312 -3.7468,-2.0871 -6.0039,-5.5668 -6.0039,-5.5668 0,0 6.9508,-0.5492 11.366,0.4364 -9.7304,-10.2102 -37.1195,-7.5872 -40.7191,1.5363 z m 35.0062,0.4465 c 2.4086,2.4558 4.6942,4.1066 4.6942,4.1066 0,0 -2.8254,1.2445 -6.336,1.016 3.6473,3.3903 7.8516,3.7375 7.8516,3.7375 0,0 -2.634,2.7285 -8.8215,2.1465 0,0 3.2489,3.7785 8.2844,3.9649 0,0 -4.6016,3.5988 -10.7031,1.8167 0,0 2.3898,3.6797 5.9062,4.7083 -4.9054,1.6148 -9.0511,-0.6368 -9.0511,-0.6368 0,0 1.1,2.8371 3.8043,4.8981 0,0 -7.7668,0.3304 -15.5336,-7.7793 -3.3372,-3.4848 -5.35,-9.1473 -7.4575,-8.5711 -1.9664,0.5371 -1.0785,6.0742 2.9621,16.8324 0.7403,1.9707 5.3469,14.3364 -1.0878,18.5974 -4.1735,2.764 -9.2598,-0.059 -9.9758,-4.868 -0.5133,-3.449 1.1277,-3.456 0.2207,-5.745 -1.5617,-3.943 -1.784,-5.6414 -0.911,-5.8828 1.2375,-0.3422 2.852,2.3798 4.3946,4.7358 1.1855,1.81 2.1082,2.951 3.0793,2.599 1.5414,-0.559 0.18,-5.167 -1.8711,-9.7446 C 53.0668,76.1922 46.1691,66.4242 48.0984,56.7613 50.8637,42.9145 90.7262,41.2512 97.3406,58.4465 94.1051,56.9301 88.9102,56.7047 86.6648,57.0598"
   style="fill:#ffffff;fill-opacity:1;fill-rule:nonzero;stroke:none;stroke-width:0.1"
   id="path160799" /><text
   transform="scale(1,-1)"
   id="text160878"
   y="-20.835722"
   x="37.904537"
   style="font-style:normal;font-weight:normal;font-size:30px;line-height:1.25;font-family:sans-serif;letter-spacing:0px;word-spacing:0px;fill:#000000;fill-opacity:1;stroke:none;stroke-width:0.75"
   xml:space="preserve"><tspan
     style="stroke-width:0.75"
     y="5.7072468"
     x="37.904537"
     id="tspan160876" /></text>

<text
   transform="scale(1,-1)"
   id="text160882"
   y="-23.89633"
   x="26.839237"
   style="font-style:normal;font-weight:normal;font-size:30px;line-height:1.25;font-family:sans-serif;letter-spacing:0px;word-spacing:0px;fill:#000000;fill-opacity:1;stroke:none;stroke-width:0.75"
   xml:space="preserve"><tspan
     style="stroke-width:0.75"
     y="2.6466389"
     x="26.839237"
     id="tspan160880" /></text>

<path
   transform="matrix(0.75000002,0,0,-0.75000002,0,141.73)"
   id="path160928"
   d="m 89.096441,127.3434 c -12.772656,-1.33005 -21.737747,-5.87027 -24.346995,-12.33012 -1.145294,-2.83546 -1.285606,-7.80976 -0.345244,-12.23941 1.054772,-4.96859 2.611282,-8.822476 7.194873,-17.81435 3.830236,-7.513978 5.429841,-11.340085 6.278893,-15.018531 0.429934,-1.862654 0.408972,-3.82994 -0.04617,-4.332864 -0.712022,-0.786775 -2.066151,-0.36686 -3.122506,0.968287 -0.349948,0.442307 -1.488688,2.075526 -2.530533,3.629377 -1.04687,1.561345 -2.330158,3.264015 -2.868661,3.806148 -0.829059,0.834649 -1.057174,0.980967 -1.52937,0.980967 -1.464974,0 -1.367996,-1.637801 0.381041,-6.435139 0.88607,-2.430354 0.948475,-3.111239 0.4388,-4.787614 -0.24063,-0.791467 -0.333569,-1.514629 -0.33276,-2.589251 0.0021,-2.816126 0.893671,-4.980818 2.845921,-6.909923 3.445581,-3.404732 8.238076,-3.373013 11.728796,0.07763 2.876604,2.843575 3.753728,7.32272 2.717179,13.875625 -0.575946,3.64104 -1.134047,5.532191 -3.984805,13.502697 -2.418157,6.76099 -3.671508,11.657457 -3.810578,14.88679 -0.119249,2.769094 0.335123,3.805831 1.667987,3.805831 1.340323,0 2.270038,-0.9889 5.385972,-5.728842 2.355459,-3.583109 3.365187,-4.859967 5.405187,-6.835172 2.968807,-2.87451 5.589685,-4.730796 9.081702,-6.432289 3.16475,-1.542029 6.15581,-2.448143 9.07395,-2.748867 l 1.06927,-0.110191 -1.23485,1.235734 c -1.25915,1.260059 -2.49244,2.940414 -3.23586,4.408849 -0.22799,0.450335 -0.41453,0.851508 -0.41453,0.891492 0,0.03999 0.42109,-0.0984 0.93576,-0.307537 3.17939,-1.291899 7.04202,-1.597761 10.12376,-0.80165 l 0.77901,0.201241 -1.04232,0.487757 c -2.06683,0.967187 -3.99456,2.525916 -5.61489,4.540111 -0.52721,0.655362 -0.9304,1.219733 -0.89598,1.25416 0.0344,0.03442 0.57172,-0.04451 1.19398,-0.175403 3.67095,-0.772209 7.56965,-0.24267 11.00091,1.494192 1.94386,0.983959 1.95163,1.001315 0.54583,1.219869 -2.42539,0.377068 -5.2973,1.599652 -7.22327,3.074978 -1.03186,0.790431 -2.26881,1.889769 -2.26889,2.016488 -5e-5,0.06474 0.88692,0.117716 1.97103,0.117716 2.19679,0 3.6913,0.183213 5.32728,0.653074 1.28608,0.369369 3.10068,1.21489 3.75749,1.75081 l 0.46144,0.37652 -1.24622,0.27634 c -3.04037,0.67417 -6.24186,2.26372 -8.45723,4.19903 l -0.61893,0.54068 1.79609,0.0981 c 2.57443,0.14058 6.54187,0.98065 6.39696,1.35449 -0.0271,0.0698 -0.59617,0.5654 -1.26469,1.10132 -1.524,1.22172 -4.6703,4.07878 -4.6703,4.24095 0,0.20682 1.09319,0.31586 3.18452,0.31766 3.39156,0.003 6.7845,-0.49757 9.45361,-1.39449 0.73195,-0.24597 1.33083,-0.37871 1.33083,-0.295 0,0.34384 -1.3862,2.78185 -2.22466,3.91268 -4.52746,6.10619 -13.05841,10.22295 -24.37914,11.76458 -3.078925,0.41928 -10.751192,0.54392 -13.818689,0.22449 z m 13.317199,-3.31511 c 7.0925,-0.70064 13.22808,-2.70029 17.64346,-5.7502 1.15787,-0.7998 3.24657,-2.62334 3.13388,-2.73603 -0.0344,-0.0344 -0.6906,0.0437 -1.45822,0.17359 -2.87989,0.48726 -8.13503,0.67045 -12.0533,0.42016 l -1.55425,-0.0993 0.93881,-1.17716 c 1.35611,-1.70041 4.03291,-4.18038 5.59059,-5.1795 0.74021,-0.47479 1.35042,-0.9058 1.35603,-0.9578 0.0391,-0.36238 -5.35486,-0.23265 -7.10282,0.17083 -1.05665,0.2439 -1.08912,0.22535 -0.75173,-0.42943 0.48007,-0.9317 1.80342,-2.7417 2.75984,-3.77475 1.20888,-1.30574 2.96628,-2.61708 4.56463,-3.40606 1.30634,-0.64483 1.32973,-0.66598 0.84383,-0.76316 -1.28629,-0.25726 -4.98431,0.0221 -7.156,0.54059 -1.70284,0.40656 -3.51881,0.96327 -5.06736,1.55349 -0.90068,0.34328 -1.66264,0.59912 -1.69324,0.56852 -0.0306,-0.0306 0.64297,-0.8236 1.49681,-1.76224 3.20938,-3.528098 7.29205,-6.825773 10.35049,-8.360358 0.53954,-0.270712 0.98097,-0.536098 0.98097,-0.589747 0,-0.05365 -1.04179,-0.05978 -2.31508,-0.01362 -2.82595,0.102432 -5.19824,0.655986 -7.51548,1.753676 -0.83555,0.395803 -1.55366,0.685157 -1.59581,0.64301 -0.11948,-0.11948 0.41106,-1.437492 1.2013,-2.984379 0.90328,-1.768156 2.23653,-3.547641 3.58116,-4.779746 1.18091,-1.082098 1.14092,-1.114858 -0.85729,-0.702125 -2.99974,0.6196 -6.31976,2.455994 -9.175225,5.075069 -0.496368,0.455276 -0.902488,0.79758 -0.902488,0.760675 0,-0.362827 1.144385,-3.395048 1.8049,-4.782356 0.876073,-1.840043 1.448693,-2.768186 2.474463,-4.010737 0.3385,-0.410044 0.56824,-0.745535 0.51052,-0.745535 -0.35814,0 -3.881703,1.85835 -5.2697,2.779277 -3.866077,2.565117 -6.445073,5.229568 -11.058686,11.425114 -2.388854,3.207952 -4.208017,5.107722 -5.48117,5.724042 -2.868383,1.38856 -4.84519,-0.56395 -4.820364,-4.76111 0.02326,-3.932282 1.058856,-7.878924 5.277215,-20.111397 2.74766,-7.967714 3.495052,-11.765898 3.077815,-15.641182 -0.34055,-3.163004 -1.046564,-4.947773 -2.47289,-6.251356 -1.7052,-1.558457 -4.561479,-1.8391 -6.86602,-0.67462 -2.302857,1.16363 -4.172273,4.166078 -4.172273,6.701041 0,0.844536 0.06324,1.08992 0.373975,1.451175 0.323809,0.376451 0.48698,0.434027 1.216398,0.429212 0.682216,-0.0045 1.129608,-0.147543 2.35254,-0.752156 1.679428,-0.830302 2.492069,-1.007091 3.341163,-0.726865 2.588195,0.854182 2.956326,4.051747 1.171182,10.172853 -1.066244,3.656062 -2.973944,8.444121 -6.311044,15.839833 -3.214439,7.123871 -4.634399,11.982612 -4.94583,16.923382 -0.234847,3.72578 0.14766,6.45812 1.232899,8.80689 3.262235,7.0604 18.090305,11.51508 33.3214,10.01047 z"
   style="fill:#000000;stroke-width:0.15695459" /><path
   transform="matrix(0.75000002,0,0,-0.75000002,0,141.73)"
   id="path160930"
   d="m 97.500192,138.70028 c -2.645137,-0.26278 -6.776841,-0.90565 -12.438449,-1.93535 -9.044514,-1.64497 -11.762199,-1.97233 -16.373952,-1.97233 -4.832384,0 -8.723055,0.70436 -12.292678,2.22545 -0.379099,0.16154 -0.717417,0.26557 -0.751817,0.23117 -0.09352,-0.0935 1.292891,-1.2156 2.539771,-2.05552 4.023064,-2.71002 9.050994,-4.01105 15.500944,-4.01105 3.715606,0 4.986745,0.11071 16.988656,1.47972 5.12685,0.5848 6.85009,0.71553 10.829863,0.82161 11.46866,0.30568 20.55735,-2.13339 29.09352,-7.80763 1.26357,-0.83994 2.32929,-1.49602 2.36825,-1.45797 0.11407,0.11136 -4.02264,4.21109 -5.55872,5.50904 -5.69082,4.80858 -11.19622,7.4363 -18.21227,8.69268 -1.54981,0.27752 -2.62026,0.34534 -6.04275,0.38279 -2.28762,0.025 -4.83028,-0.0211 -5.650368,-0.10261 z"
   style="fill:#000000;stroke-width:0.15695459" /></g></svg>