<?xml version="1.0" encoding="UTF-8" standalone="no"?>
<svg
   xmlns:dc="http://purl.org/dc/elements/1.1/"
   xmlns:cc="http://creativecommons.org/ns#"
   xmlns:rdf="http://www.w3.org/1999/02/22-rdf-syntax-ns#"
   xmlns:svg="http://www.w3.org/2000/svg"
   xmlns="http://www.w3.org/2000/svg"
   viewBox="0 0 188.97333 188.97333"
   height="188.97333"
   width="188.97333"
   xml:space="preserve"
   id="svg160783"
   version="1.1"><metadata
     id="metadata160789"><rdf:RDF><cc:Work
         rdf:about=""><dc:format>image/svg+xml</dc:format><dc:type
           rdf:resource="http://purl.org/dc/dcmitype/StillImage" /><dc:title></dc:title></cc:Work></rdf:RDF></metadata><defs
     id="defs160787"><clipPath
       id="clipPath160901"
       clipPathUnits="userSpaceOnUse"><g
         id="use160903"><path
           d="m 73.6906,31.325 v 9.202 h 0.9985 v -8.1161 h 3.716 V 31.325 h -4.7145"
           style="fill:#ffffff;fill-opacity:1;fill-rule:nonzero;stroke:none;stroke-width:0.1"
           id="path160905" /></g></clipPath></defs><g
     transform="matrix(1.3333333,0,0,-1.3333333,0,188.97333)"
     id="g160791"><path
       d="M 141.732,-0.58857973 H 0 V 141.14342 H 141.732 V -0.58857973"
       style="fill:#1f1e1e;fill-opacity:1;fill-rule:nonzero;stroke:none;stroke-width:0.1"
       id="path160795" /><path
       d="M 41.0781,38.3586 C 55.3031,52.1074 78.025,31.4266 100.654,49.498 79.8039,24.718 59.4383,47.4441 41.0781,38.3586"
       style="fill:#ffffff;fill-opacity:1;fill-rule:nonzero;stroke:none;stroke-width:0.1"
       id="path160797" /><path
       d="m 51.6586,56.6133 c -1.1746,2.9765 -1.5816,8.9695 2.6801,18.1965 5.3859,11.6621 7.7078,18.8542 4.3363,20.2242 -2.0258,0.823 -3.4027,-1.785 -5.2156,-0.931 -1.4727,0.693 0.5488,7.647 5.9324,6.636 2.3129,-0.434 3.5352,-2.439 3.748,-6.319 0.3946,-7.182 -5.423,-16.1262 -6.3355,-25.352 -0.4082,-4.1223 2.2426,-7.6547 7.0723,-1.0899 2.5789,3.5055 6.2035,9.0258 12.9461,11.6649 -2.5579,-2.502 -3.7254,-7.4145 -3.7254,-7.4145 0,0 3.9476,4.5035 9.0394,4.8528 -3.3406,-2.4684 -4.514,-6.8122 -4.514,-6.8122 0,0 3.6211,2.4735 8.7511,2.0907 -5.3035,-2.4434 -9.9633,-8.3352 -9.9633,-8.3352 0,0 6.0657,2.9543 11.1946,2.2164 0,0 -4.1996,-1.1332 -6.8785,-6.4648 0,0 2.2328,0.8121 6.289,0.4312 -3.7468,-2.0871 -6.0039,-5.5668 -6.0039,-5.5668 0,0 6.9508,-0.5492 11.366,0.4364 -9.7304,-10.2102 -37.1195,-7.5872 -40.7191,1.5363 z m 35.0062,0.4465 c 2.4086,2.4558 4.6942,4.1066 4.6942,4.1066 0,0 -2.8254,1.2445 -6.336,1.016 3.6473,3.3903 7.8516,3.7375 7.8516,3.7375 0,0 -2.634,2.7285 -8.8215,2.1465 0,0 3.2489,3.7785 8.2844,3.9649 0,0 -4.6016,3.5988 -10.7031,1.8167 0,0 2.3898,3.6797 5.9062,4.7083 -4.9054,1.6148 -9.0511,-0.6368 -9.0511,-0.6368 0,0 1.1,2.8371 3.8043,4.8981 0,0 -7.7668,0.3304 -15.5336,-7.7793 -3.3372,-3.4848 -5.35,-9.1473 -7.4575,-8.5711 -1.9664,0.5371 -1.0785,6.0742 2.9621,16.8324 0.7403,1.9707 5.3469,14.3364 -1.0878,18.5974 -4.1735,2.764 -9.2598,-0.059 -9.9758,-4.868 -0.5133,-3.449 1.1277,-3.456 0.2207,-5.745 -1.5617,-3.943 -1.784,-5.6414 -0.911,-5.8828 1.2375,-0.3422 2.852,2.3798 4.3946,4.7358 1.1855,1.81 2.1082,2.951 3.0793,2.599 1.5414,-0.559 0.18,-5.167 -1.8711,-9.7446 C 53.0668,76.1922 46.1691,66.4242 48.0984,56.7613 50.8637,42.9145 90.7262,41.2512 97.3406,58.4465 94.1051,56.9301 88.9102,56.7047 86.6648,57.0598"
       style="fill:#ffffff;fill-opacity:1;fill-rule:nonzero;stroke:none;stroke-width:0.1"
       id="path160799" /><text
       transform="scale(1,-1)"
       id="text160878"
       y="-20.835722"
       x="37.904537"
       style="font-style:normal;font-weight:normal;font-size:30px;line-height:1.25;font-family:sans-serif;letter-spacing:0px;word-spacing:0px;fill:#000000;fill-opacity:1;stroke:none;stroke-width:0.75"
       xml:space="preserve"><tspan
         style="stroke-width:0.75"
         y="5.7072468"
         x="37.904537"
         id="tspan160876" /></text>
<text
       transform="scale(1,-1)"
       id="text160882"
       y="-23.89633"
       x="26.839237"
       style="font-style:normal;font-weight:normal;font-size:30px;line-height:1.25;font-family:sans-serif;letter-spacing:0px;word-spacing:0px;fill:#000000;fill-opacity:1;stroke:none;stroke-width:0.75"
       xml:space="preserve"><tspan
         style="stroke-width:0.75"
         y="2.6466389"
         x="26.839237"
         id="tspan160880" /></text>
</g></svg>